<svg width="15" height="15" viewBox="0 0 15 15" fill="none" xmlns="http://www.w3.org/2000/svg">
<path fill-rule="evenodd" clip-rule="evenodd" d="M7.5 15C11.6421 15 15 11.6421 15 7.5C15 3.35786 11.6421 0 7.5 0C3.35786 0 0 3.35786 0 7.5C0 11.6421 3.35786 15 7.5 15Z" fill="#9AE8D1"/>
<path d="M11.4332 5.64441C11.695 5.37652 11.6879 4.94919 11.4174 4.68994C11.147 4.4307 10.7155 4.4377 10.4538 4.70559L6.39228 8.86252L4.91338 7.39771C4.64724 7.1341 4.21574 7.1341 3.9496 7.39771C3.68347 7.66131 3.68347 8.0887 3.9496 8.3523L5.91835 10.3023C6.04753 10.4302 6.22315 10.5015 6.40583 10.5C6.5885 10.4985 6.76292 10.4244 6.88996 10.2944L11.4332 5.64441Z" fill="white"/>
</svg>
