<svg width="24" height="24" viewBox="0 0 24 24" fill="none" xmlns="http://www.w3.org/2000/svg">
<path d="M12.1643 4.99707C13.4923 4.0982 15.2853 5.04966 15.2854 6.65332V17.3467C15.2853 18.9503 13.4923 19.9018 12.1643 19.0029L9.22873 17.0156C8.73229 16.6796 8.14656 16.5 7.54709 16.5H6.28537C5.1808 16.5 4.28537 15.6046 4.28537 14.5V9.5C4.28537 8.39543 5.1808 7.5 6.28537 7.5H7.54709C8.14656 7.5 8.73229 7.3204 9.22873 6.98438L12.1643 4.99707Z" stroke="#404040" stroke-width="2"/>
<path d="M19.2854 8.5C20.1695 9.40188 20.7147 10.6373 20.7147 12C20.7147 13.3627 20.1695 14.5981 19.2854 15.5" stroke="#404040" stroke-width="2"/>
</svg>
