<svg width="130" height="34" viewBox="0 0 130 34" fill="none" xmlns="http://www.w3.org/2000/svg">
<path d="M54.0645 10.143H55.5595L57.4055 15.044L59.1735 10.143H60.6815L57.0285 19.438H55.5595L56.7295 16.708L54.0645 10.143ZM64.6147 9.96098C65.6374 9.96098 66.4521 10.299 67.0587 10.975C67.6654 11.651 67.9687 12.496 67.9687 13.51C67.9687 14.5326 67.6697 15.369 67.0717 16.019C66.4391 16.7036 65.6201 17.046 64.6147 17.046C63.6094 17.046 62.7904 16.7036 62.1577 16.019C61.5597 15.369 61.2607 14.5326 61.2607 13.51C61.2607 12.4786 61.5641 11.6336 62.1707 10.975C62.7861 10.299 63.6007 9.96098 64.6147 9.96098ZM64.6147 11.092C63.9734 11.092 63.4794 11.3433 63.1327 11.846C62.8294 12.262 62.6777 12.8166 62.6777 13.51C62.6777 14.1946 62.8294 14.745 63.1327 15.161C63.4881 15.6636 63.9821 15.915 64.6147 15.915C65.2387 15.915 65.7371 15.6636 66.1097 15.161C66.4217 14.719 66.5777 14.1686 66.5777 13.51C66.5777 12.8253 66.4217 12.2706 66.1097 11.846C65.7457 10.299 66.2474 9.96098 64.6147 9.96098ZM69.2776 10.143H70.6556V14.238C70.6556 14.8186 70.7769 15.2346 71.0196 15.486C71.2622 15.7546 71.6479 15.889 72.1766 15.889C72.5232 15.889 72.8569 15.7416 73.1776 15.447C73.4896 15.1436 73.7062 14.745 73.8276 14.251V10.143H75.2056V16.864H73.8276V15.954C73.2556 16.682 72.5492 17.046 71.7086 17.046C70.0879 17.046 69.2776 16.1403 69.2776 14.329V10.143Z" fill="white"/>
<path d="M33.3196 3.18046L36.1842 4.36375L38.5449 2.35543L38.3047 5.44551L40.9443 7.07007L37.9312 7.79655L37.2018 10.8089L35.5798 8.16782L32.4895 8.40499L34.5001 6.04623L33.3196 3.18046Z" fill="white"/>
<path d="M45.4358 18.104L45.0358 15.768L42.8118 16.6L42.7478 16.488L44.5718 14.968L42.7478 13.464L42.8118 13.352L45.0358 14.168L45.4358 11.832H45.5638L45.9638 14.168L48.1878 13.352L48.2518 13.464L46.4278 14.968L48.2518 16.488L48.1878 16.6L45.9638 15.768L45.5638 18.104H45.4358Z" fill="white"/>
<circle cx="80.4674" cy="12.3314" r="1.46739" fill="white"/>
</svg>
