<svg width="130" height="37" viewBox="0 0 130 37" fill="none" xmlns="http://www.w3.org/2000/svg">
<path d="M51.455 13.097C53.2057 13.097 54.159 13.8033 54.315 15.216H52.976C52.872 14.852 52.7117 14.6007 52.495 14.462C52.261 14.306 51.9057 14.228 51.429 14.228C50.9957 14.228 50.6837 14.2887 50.493 14.41C50.2503 14.54 50.129 14.7393 50.129 15.008C50.129 15.2333 50.311 15.4327 50.675 15.606C50.9003 15.7013 51.351 15.8357 52.027 16.009C52.781 16.191 53.3487 16.4033 53.73 16.646C54.2673 16.984 54.536 17.452 54.536 18.05C54.536 19.4713 53.5393 20.182 51.546 20.182C49.7087 20.182 48.712 19.3977 48.556 17.829H49.908C49.986 18.2797 50.1463 18.6003 50.389 18.791C50.6317 18.9643 51.0043 19.051 51.507 19.051C52.5817 19.051 53.119 18.7477 53.119 18.141C53.119 17.8113 52.9197 17.556 52.521 17.374C52.313 17.27 51.8623 17.14 51.169 16.984C50.3717 16.802 49.817 16.607 49.505 16.399C48.985 16.0697 48.725 15.619 48.725 15.047C48.725 14.4317 48.9763 13.955 49.479 13.617C49.9817 13.2703 50.6403 13.097 51.455 13.097ZM58.7939 13.097C59.8166 13.097 60.6313 13.435 61.2379 14.111C61.8446 14.787 62.1479 15.632 62.1479 16.646C62.1479 17.6687 61.8489 18.505 61.2509 19.155C60.6183 19.8397 59.7993 20.182 58.7939 20.182C57.7886 20.182 56.9696 19.8397 56.3369 19.155C55.7389 18.505 55.4399 17.6687 55.4399 16.646C55.4399 15.6147 55.7433 14.7697 56.3499 14.111C56.9653 13.435 57.7799 13.097 58.7939 13.097ZM58.7939 14.228C58.1526 14.228 57.6586 14.4793 57.3119 14.982C57.0086 15.398 56.8569 15.9527 56.8569 16.646C56.8569 17.3307 57.0086 17.881 57.3119 18.297C57.6673 18.7997 58.1613 19.051 58.7939 19.051C59.4179 19.051 59.9163 18.7997 60.2889 18.297C60.6009 17.855 60.7569 17.3047 60.7569 16.646C60.7569 15.9613 60.6009 15.4067 60.2889 14.982C59.9249 14.4793 59.4266 14.228 58.7939 14.228ZM66.6808 13.097C67.6774 13.097 68.3838 13.474 68.7998 14.228C69.1031 13.812 69.4238 13.5173 69.7618 13.344C70.0651 13.1793 70.4464 13.097 70.9058 13.097C71.5991 13.097 72.1711 13.3267 72.6218 13.786C73.0724 14.254 73.2978 14.8563 73.2978 15.593V20H71.9198V15.827C71.9198 15.2723 71.8028 14.8737 71.5688 14.631C71.3434 14.3797 70.9621 14.254 70.4248 14.254C70.0434 14.254 69.7228 14.397 69.4628 14.683C69.2028 14.969 69.0728 15.3633 69.0728 15.866V20H67.6948V15.84C67.6948 14.7827 67.2354 14.254 66.3168 14.254C65.8661 14.254 65.5108 14.423 65.2508 14.761C64.9734 15.073 64.8348 15.4717 64.8348 15.957V20H63.4568V13.279H64.8348V14.02C65.3721 13.4047 65.9874 13.097 66.6808 13.097ZM77.9511 13.097C78.9738 13.097 79.7885 13.435 80.3951 14.111C81.0018 14.787 81.3051 15.632 81.3051 16.646C81.3051 17.6687 81.0061 18.505 80.4081 19.155C79.7755 19.8397 78.9565 20.182 77.9511 20.182C76.9458 20.182 76.1268 19.8397 75.4941 19.155C74.8961 18.505 74.5971 17.6687 74.5971 16.646C74.5971 15.6147 74.9005 14.7697 75.5071 14.111C76.1225 13.435 76.9371 13.097 77.9511 13.097ZM77.9511 14.228C77.3098 14.228 76.8158 14.4793 76.4691 14.982C76.1658 15.398 76.0141 15.9527 76.0141 16.646C76.0141 17.3307 76.1658 17.881 76.4691 18.297C76.8245 18.7997 77.3185 19.051 77.9511 19.051C78.5751 19.051 79.0735 18.7997 79.4461 18.297C79.7581 17.855 79.9141 17.3047 79.9141 16.646C79.9141 15.9613 79.7581 15.4067 79.4461 14.982C79.0821 14.4793 78.5838 14.228 77.9511 14.228Z" fill="white"/>
<path d="M89.2783 0.938654L89.8455 3.98572L92.8153 4.87239L90.0927 6.35338L90.1671 9.45189L87.9173 7.32012L84.9934 8.34844L86.3256 5.54994L84.4441 3.08697L87.5173 3.48917L89.2783 0.938654Z" fill="white"/>
<circle cx="98.4674" cy="11.4674" r="1.46739" fill="white"/>
</svg>
