<svg width="402" height="143" viewBox="0 0 402 143" xmlns="http://www.w3.org/2000/svg"><path fill-rule="evenodd" clip-rule="evenodd" d="M153 7.9L152.3 7.2H151.9L151.5 6.8H147.6L147.2 7.2H146.5L146.1 7.5H145.8L145.4 7.9H145L144.7 8.3L143.6 8.6L142.9 9.3H142.5L140.7 11.1H140.4L139.6 11.9V12.2L138.2 13.7V14L137.5 14.7V15.1L136.8 15.8V16.2L136 17.2V18L135.7 18.3V18.7L134.6 20.5V21.2L133.1 22.6H132.8L132.4 23H132.1L131.7 23.4H131.3L131 23.7H130.6L130.3 24.1H129.9L129.5 24.4L128.5 24.8L127.7 25.5H127.4L127 25.9H126.7L126.3 26.2H125.9L125.6 26.6H125.2L124.8 26.9H124.5L124.1 27.3L123 27.7L122.3 28.4H122L121.6 28.7L120.5 29.1L119.8 29.8H119.4L119.1 30.2H118.7L118.4 30.5L117.3 30.9L116.5 31.6H116.2L115.8 32L114.7 32.3L114 33.1H113.7L113.3 33.4H112.9L112.6 33.8L111.5 34.1L110.8 34.9L109.7 35.2L109 35.9H108.6L108.3 36.3L107.2 36.6L106.4 37.4H106.1L105.7 37.7L104.6 38.1L103.9 38.8L102.8 39.2L102.1 39.9H101.8L101.4 40.2H101L100.3 41L99.2 41.3L97.4 42.8L96.3 43.1L95.6 43.8H95.3L94.9 44.2H94.5L93.8 44.9L92.7 45.3L90.9 46.7H90.6L90.2 47.1H89.9L89.1 47.8L88.1 48.1L86.2 49.6L85.2 49.9L83.4 51.4L82.3 51.7L80.5 53.2L79.4 53.5L77.6 55L76.5 55.3L75.8 56.1H75.4L73.6 57.5H73.3L72.9 57.8H72.5L71.8 58.6L70.7 58.9L70 59.6H69.7L67.8 61.1L66.8 61.4L66 62.2H65.7L63.9 63.6L62.8 64L62.1 64.7L61 65L60.3 65.8H59.9L59.6 66.1H59.2L57.7 64.3V63.6L57.4 63.2V62.5L57 62.2V58.2L57.4 57.8V57.1L57.7 56.8V56.4L58.1 56.1L58.5 55L59.2 54.3V53.5H58.8L58.5 53.2L56.7 55V55.3L55.9 56.4V57.5L55.6 57.8V62.2L55.9 62.5V63.2L56.3 63.6V64.3L56.7 64.7V65L57.4 65.8L57.7 66.8L56.7 67.9H56.3L55.2 68.6H54.5L54.1 69H49.5L49.1 68.6H48.4L48 68.3L46.9 67.9L44.4 65.4V64.7L44 64.3V63.6L43.7 63.2V59.3L44 58.9V58.2L44.4 57.8V57.1L44.8 56.8V56.1L45.1 55.7V55.3L45.5 55V54.6L45.8 54.3V53.9L46.2 53.5L46.6 52.5L47.3 51.7V51.4L48 50.7V50.3L49.5 48.9V48.5L55.9 42H56.3L57.7 40.6H58.1L59.2 39.5H59.6L60.3 38.8H60.6L61.4 38.1H61.7L63.5 36.6H63.9L64.2 36.3H64.6L65.3 35.6L66.4 35.2L67.1 34.5H67.5L67.8 34.1H68.2L68.6 33.8H68.9L69.3 33.4H69.7L71.5 32.3H72.2L74 31.3H74.7L75.8 30.5H76.5L76.9 30.2L76.5 29.8L76.9 29.5H77.6L78 29.1H78.7L79 29.5H79.8L80.1 29.1H80.8L81.2 28.7H82.3L82.6 28.4H84.4L84.8 28H85.9L86.2 27.7H88.8L89.1 27.3H96.3L96.7 27.7H98.5L98.9 28H99.6L100 28.4H100.7L102.1 29.8L101.8 30.2V30.9L101 31.6L100.7 31.3L100.3 31.6L100.7 32L100 32.7V33.1L99.2 33.8H98.9L97.8 34.9V35.6H98.9L99.2 35.2H99.6V34.9L100.3 34.1H100.7L103.2 31.6V31.3L103.6 30.9V29.1L103.2 28.7V28.4L101.8 26.9H101L100.7 26.6H99.2L98.9 26.2H96L95.6 25.9H92.7L92.4 26.2H87.7L87.3 26.6H85.5L85.2 26.9H83.4L83 27.3H81.9L81.6 27.7H80.8L80.5 28H79.4L79 28.4H78.3L78 28.7H77.2L76.9 29.1H76.1L75.1 29.8H74.3L74 30.2H73.3L71.5 31.3H70.7L70.4 31.6H70L69.7 32H69.3L68.9 32.3H68.6L68.2 32.7H67.8L67.5 33.1H67.1L66.8 33.4L65.7 33.8L65 34.5L63.9 34.9L63.2 35.6L62.1 35.9L61.4 36.6H61L60.3 37.4H59.9L59.2 38.1H58.8L58.1 38.8H57.7L56.3 40.2H55.9L54.5 41.7H54.1L49.5 46.3V46.7L48 48.1V48.5L46.9 49.6V49.9L46.2 50.7L45.8 51.7L45.1 52.5V52.8L44.8 53.2V53.5L44.4 53.9V54.3L43.3 56.1V56.8L43 57.1V57.8L42.6 58.2V59.3L42.2 59.6V63.2L42.6 63.6V64.7L43 65L43.3 66.1L44.4 67.2V67.5L45.1 68.3H45.5L46.2 69H46.6L47.6 69.7H48.4L48.7 70.1H49.5L49.8 70.4H52.7L53.1 70.8L51.6 72.2H51.3L49.1 74.4V74.7L49.8 75.5L50.2 75.1H50.5L53.8 71.9H54.1L55.9 70.1H56.3L56.7 69.7H57L58.8 68.6H59.2L60.3 69.7H60.6L61.7 70.8H62.1L62.8 71.5H63.2L64.2 72.2H65L66.8 73.3H67.5L67.8 73.7H68.6L68.9 74H70L70.4 74.4H71.8L72.2 74.7H74L74.3 75.1H78.7L79 75.5H80.1L80.5 75.1L80.8 75.5H83L83.4 75.1H87.3L87.7 74.7H90.9L91.3 74.4H93.1L93.5 74H94.5L94.9 73.7H96.3L96.7 73.3H97.8L98.2 72.9H99.2L99.6 72.6H100.3L100.7 72.2H101.8L102.8 71.5H103.6L103.9 71.1H104.6L105.7 70.4H106.4L106.8 70.1H107.2L107.5 69.7H107.9L108.3 69.3H108.6L109 69H109.3L109.7 68.6H110.1L110.4 68.3H110.8L111.1 67.9L112.2 67.5L112.9 66.8L114 66.5L114.7 65.8H115.1L115.8 65H116.2L117.3 64H117.6L119.1 62.5H119.4L124.1 57.8V57.5L125.9 55.7V55.3L127 54.3V53.9L127.7 53.2V52.8L128.5 52.1V51.7L129.9 49.9V49.6L130.3 49.2V48.9L130.6 48.5V48.1L131 47.8V47.4L131.3 47.1V46.7L132.4 44.9V44.2L133.1 43.1V42.4L133.5 42V41.3L133.9 41V40.2L134.2 39.9V39.2L134.6 38.8V37.7L134.9 37.4V35.9L135.3 35.6V34.1L135.7 33.8V31.3L136 30.9V28.7L136.4 28.4V26.9L136.8 26.6V25.2L137.1 24.8V23.7L137.8 22.6V21.9L138.6 21.2H138.9L139.3 20.8L140.4 20.5L141.1 19.8H141.4L141.8 19.4H142.2L142.9 18.7L144 18.3L144.7 17.6H145L145.8 16.9H146.1L146.9 16.2H147.2L148.3 15.1H148.7L149.4 14.4H149.7L152.6 11.5V11.1L153 10.8V10.1L153.3 9.7V8.6L153 8.3V7.9ZM50.2 74L50.5 73.7L50.9 74L50.5 74.4L50.2 74ZM50.5 73.7L50.9 73.3L51.3 73.7L50.9 74L50.5 73.7ZM50.9 73.3L51.3 72.9L51.6 73.3L51.3 73.7L50.9 73.3ZM51.3 72.9L51.6 72.6L52 72.9L51.6 73.3L51.3 72.9ZM51.6 72.6L52 72.2L52.3 72.6L52 72.9L51.6 72.6ZM52 72.2L52.3 71.9L52.7 72.2L52.3 72.6L52 72.2ZM65 71.9L65.3 71.5L65.7 71.9L65.3 72.2L65 71.9ZM52.7 71.9L53.1 71.5L53.4 71.9L53.1 72.2L52.7 71.9ZM53.1 71.5L53.4 71.1L53.8 71.5L53.4 71.9L53.1 71.5ZM53.4 71.1L53.8 70.8L54.1 71.1L53.8 71.5L53.4 71.1ZM62.8 70.8L63.2 70.4L63.5 70.8L63.2 71.1L62.8 70.8ZM53.8 70.8L54.1 70.4L54.5 70.8L54.1 71.1L53.8 70.8ZM62.1 70.4L62.4 70.1L62.8 70.4L62.4 70.8L62.1 70.4ZM61.7 70.1L62.1 69.7L62.4 70.1L62.1 70.4L61.7 70.1ZM60.6 69.3L61 69L61.4 69.3L61 69.7L60.6 69.3ZM55.6 69L55.9 69.3L54.5 70.8L54.1 70.4V69.7L54.5 69.3L55.6 69ZM55.9 69L56.3 68.6L56.7 69L56.3 69.3L55.9 69ZM47.6 69L48 68.6L48.4 69L48 69.3L47.6 69ZM61.4 68.6L61.7 68.3L62.1 68.6L61.7 69L61.4 68.6ZM59.9 68.6L60.3 68.3L60.6 68.6L60.3 69L59.9 68.6ZM56.3 68.6L56.7 68.3H57L57.4 68.6L57 69H56.7L56.3 68.6ZM46.9 68.6L47.3 68.3L47.6 68.6L47.3 69L46.9 68.6ZM59.6 68.3L59.9 67.9L60.3 68.3L59.9 68.6L59.6 68.3ZM57 68.3L57.4 67.9L57.7 68.3L57.4 68.6L57 68.3ZM46.2 68.3L46.6 67.9L46.9 68.3L46.6 68.6L46.2 68.3ZM45.1 67.5L45.5 67.2L45.8 67.5L45.5 67.9L45.1 67.5ZM44.8 67.2L45.1 66.8L45.5 67.2L45.1 67.5L44.8 67.2ZM44.4 66.8L44.8 66.5L45.1 66.8L44.8 67.2L44.4 66.8ZM58.1 66.5L58.5 66.1L58.8 66.5L58.5 66.8L58.1 66.5ZM63.9 64.7L63.2 65.4H62.8L61 66.8L59.9 67.2L58.8 68.3H57.7L57.4 67.9L57.7 67.5H58.1L58.8 66.5L59.2 66.8L59.6 66.5L60.6 66.1L61.4 65.4H61.7L62.4 64.7H62.8L63.2 64.3H63.5L63.9 64.7ZM63.5 64.3L64.2 63.6H64.6L65 64L64.2 64.7H63.9L63.5 64.3ZM71.8 59.6L71.1 60.4H70.7L70 61.1H69.7L67.8 62.5L66.8 62.9L66 63.6H65.7L65.3 64H65L64.6 63.6L65.3 62.9H65.7L66.4 62.2L67.5 61.8L68.2 61.1H68.6L70.4 59.6H70.7L71.1 59.3H71.5L71.8 59.6ZM71.5 59.3L72.2 58.6H72.5L72.9 58.9L72.2 59.6H71.8L71.5 59.3ZM72.5 58.6L73.3 57.8H73.6L74 58.2L73.3 58.9H72.9L72.5 58.6ZM73.6 57.8L74 57.5H74.3L74.7 57.8L74.3 58.2H74L73.6 57.8ZM74.3 57.5L75.1 56.8H75.4L75.8 57.1L75.1 57.8H74.7L74.3 57.5ZM75.4 56.8L75.8 56.4H76.1L76.5 56.8L76.1 57.1H75.8L75.4 56.8ZM76.1 56.4L76.5 56.1L76.9 56.4L76.5 56.8L76.1 56.4ZM76.5 56.1L76.9 55.7H77.2L77.6 56.1L77.2 56.4H76.9L76.5 56.1ZM77.2 55.7L77.6 55.3L78 55.7L77.6 56.1L77.2 55.7ZM77.6 55.3L78 55H78.3L78.7 55.3L78.3 55.7H78L77.6 55.3ZM78.3 55L79 54.3H79.4L79.8 54.6L79 55.3H78.7L78.3 55ZM79.4 54.3L80.1 53.5H80.5L80.8 53.9L80.1 54.6H79.8L79.4 54.3ZM80.5 53.5L80.8 53.2H81.2L81.6 53.5L81.2 53.9H80.8L80.5 53.5ZM81.2 53.2L81.6 52.8L81.9 53.2L81.6 53.5L81.2 53.2ZM81.6 52.8L81.9 52.5H82.3L82.6 52.8L82.3 53.2H81.9L81.6 52.8ZM82.3 52.5L82.6 52.1L83 52.5L82.6 52.8L82.3 52.5ZM83 52.1L83.4 51.7L83.7 52.1L83.4 52.5L83 52.1ZM83.4 51.7L83.7 51.4H84.1L84.4 51.7L84.1 52.1H83.7L83.4 51.7ZM84.1 51.4L84.4 51L84.8 51.4L84.4 51.7L84.1 51.4ZM84.4 51L84.8 50.7H85.2L85.5 51L85.2 51.4H84.8L84.4 51ZM85.2 50.7L85.5 50.3L85.9 50.7L85.5 51L85.2 50.7ZM85.9 50.3L86.2 49.9L86.6 50.3L86.2 50.7L85.9 50.3ZM86.2 49.9L86.6 49.6H87L87.3 49.9L87 50.3H86.6L86.2 49.9ZM87 49.6L87.3 49.2L87.7 49.6L87.3 49.9L87 49.6ZM87.7 49.2L88.1 48.9L88.4 49.2L88.1 49.6L87.7 49.2ZM88.1 48.9L88.4 48.5L88.8 48.9L88.4 49.2L88.1 48.9ZM88.8 48.5L89.1 48.1L89.5 48.5L89.1 48.9L88.8 48.5ZM89.1 48.1L89.5 47.8H89.9L90.2 48.1L89.9 48.5H89.5L89.1 48.1ZM89.9 47.8L90.2 47.4L90.6 47.8L90.2 48.1L89.9 47.8ZM90.2 47.4L90.6 47.1H90.9L91.3 47.4L90.9 47.8H90.6L90.2 47.4ZM90.9 47.1L91.3 46.7L91.7 47.1L91.3 47.4L90.9 47.1ZM91.7 46.7L92 46.3L92.4 46.7L92 47.1L91.7 46.7ZM49.8 46.7L50.2 46.3L50.5 46.7L50.2 47.1L49.8 46.7ZM50.2 46.3L50.5 46L50.9 46.3L50.5 46.7L50.2 46.3ZM92.7 46L93.1 45.6L93.5 46L93.1 46.3L92.7 46ZM50.5 46L50.9 45.6L51.3 46L50.9 46.3L50.5 46ZM93.5 45.6L93.8 45.3L94.2 45.6L93.8 46L93.5 45.6ZM50.9 45.6L51.3 45.3L51.6 45.6L51.3 46L50.9 45.6ZM93.8 45.3L94.2 44.9L94.5 45.3L94.2 45.6L93.8 45.3ZM51.3 45.3L51.6 44.9L52 45.3L51.6 45.6L51.3 45.3ZM94.5 44.9L94.9 44.6L95.3 44.9L94.9 45.3L94.5 44.9ZM51.6 44.9L52 44.6L52.3 44.9L52 45.3L51.6 44.9ZM95.3 44.6L95.6 44.2L96 44.6L95.6 44.9L95.3 44.6ZM52 44.6L52.3 44.2L52.7 44.6L52.3 44.9L52 44.6ZM52.3 44.2L52.7 43.8L53.1 44.2L52.7 44.6L52.3 44.2ZM96.3 43.8L96.7 43.5L97.1 43.8L96.7 44.2L96.3 43.8ZM52.7 43.8L53.1 43.5L53.4 43.8L53.1 44.2L52.7 43.8ZM97.1 43.5L97.4 43.1L97.8 43.5L97.4 43.8L97.1 43.5ZM53.1 43.5L53.4 43.1L53.8 43.5L53.4 43.8L53.1 43.5ZM97.4 43.1L97.8 42.8L98.2 43.1L97.8 43.5L97.4 43.1ZM98.2 42.8L98.5 42.4L98.9 42.8L98.5 43.1L98.2 42.8ZM98.9 42.4L99.2 42L99.6 42.4L99.2 42.8L98.9 42.4ZM99.2 42L99.6 41.7L100 42L99.6 42.4L99.2 42ZM54.9 42L55.2 41.7L55.6 42L55.2 42.4L54.9 42ZM100 41.7L100.3 41.3L100.7 41.7L100.3 42L100 41.7ZM55.2 41.7L55.6 41.3L55.9 41.7L55.6 42L55.2 41.7ZM100.7 41.3L101 41L101.4 41.3L101 41.7L100.7 41.3ZM55.6 41.3L55.9 41L56.3 41.3L55.9 41.7L55.6 41.3ZM101 41L101.4 40.6L101.8 41L101.4 41.3L101 41ZM55.9 41L56.3 40.6L56.7 41L56.3 41.3L55.9 41ZM101.8 40.6L102.1 40.2L102.5 40.6L102.1 41L101.8 40.6ZM56.7 40.6L57 40.2L57.4 40.6L57 41L56.7 40.6ZM102.5 40.2L102.8 39.9L103.2 40.2L102.8 40.6L102.5 40.2ZM57 40.2L57.4 39.9L57.7 40.2L57.4 40.6L57 40.2ZM102.8 39.9L103.2 39.5H103.6L103.9 39.9L103.6 40.2H103.2L102.8 39.9ZM57.4 39.9L57.7 39.5L58.1 39.9L57.7 40.2L57.4 39.9ZM103.6 39.5L103.9 39.2L104.3 39.5L103.9 39.9L103.6 39.5ZM57.7 39.5L58.1 39.2H58.5L58.8 39.5L58.5 39.9H58.1L57.7 39.5ZM104.3 39.2L104.6 38.8L105 39.2L104.6 39.5L104.3 39.2ZM58.5 39.2L58.8 38.8L59.2 39.2L58.8 39.5L58.5 39.2ZM104.6 38.8L105 38.4H105.4L105.7 38.8L105.4 39.2H105L104.6 38.8ZM58.8 38.8L59.2 38.4L59.6 38.8L59.2 39.2L58.8 38.8ZM105.4 38.4L105.7 38.1H106.1L106.4 38.4L106.1 38.8H105.7L105.4 38.4ZM59.6 38.4L59.9 38.1L60.3 38.4L59.9 38.8L59.6 38.4ZM106.1 38.1L106.4 37.7L106.8 38.1L106.4 38.4L106.1 38.1ZM59.9 38.1L60.3 37.7L60.6 38.1L60.3 38.4L59.9 38.1ZM106.8 37.7L107.2 37.4L107.5 37.7L107.2 38.1L106.8 37.7ZM60.6 37.7L61 37.4L61.4 37.7L61 38.1L60.6 37.7ZM107.2 37.4L107.5 37H107.9L108.3 37.4L107.9 37.7H107.5L107.2 37.4ZM61 37.4L61.4 37L61.7 37.4L61.4 37.7L61 37.4ZM107.9 37L108.3 36.6H108.6L109 37L108.6 37.4H108.3L107.9 37ZM61.7 37L62.1 36.6L62.4 37L62.1 37.4L61.7 37ZM108.6 36.6L109 36.3L109.3 36.6L109 37L108.6 36.6ZM62.1 36.6L62.4 36.3H62.8L63.2 36.6L62.8 37H62.4L62.1 36.6ZM109 36.3L109.3 35.9H109.7L110.1 36.3L109.7 36.6H109.3L109 36.3ZM62.8 36.3L63.2 35.9L63.5 36.3L63.2 36.6L62.8 36.3ZM109.7 35.9L110.1 35.6H110.4L110.8 35.9L110.4 36.3H110.1L109.7 35.9ZM63.5 35.9L63.9 35.6L64.2 35.9L63.9 36.3L63.5 35.9ZM110.4 35.6L110.8 35.2H111.1L111.5 35.6L111.1 35.9H110.8L110.4 35.6ZM63.9 35.6L64.2 35.2H64.6L65 35.6L64.6 35.9H64.2L63.9 35.6ZM111.1 35.2L111.5 34.9L111.9 35.2L111.5 35.6L111.1 35.2ZM64.6 35.2L65 34.9L65.3 35.2L65 35.6L64.6 35.2ZM111.5 34.9L111.9 34.5H112.2L112.6 34.9L112.2 35.2H111.9L111.5 34.9ZM65.3 34.9L65.7 34.5L66 34.9L65.7 35.2L65.3 34.9ZM112.2 34.5L112.6 34.1H112.9L113.3 34.5L112.9 34.9H112.6L112.2 34.5ZM66 34.5L66.4 34.1L66.8 34.5L66.4 34.9L66 34.5ZM112.9 34.1L113.3 33.8L113.7 34.1L113.3 34.5L112.9 34.1ZM66.8 34.1L67.1 33.8L67.5 34.1L67.1 34.5L66.8 34.1ZM113.7 33.8L114 33.4L114.4 33.8L114 34.1L113.7 33.8ZM67.1 33.8L67.5 33.4H67.8L68.2 33.8L67.8 34.1H67.5L67.1 33.8ZM114.4 33.4L114.7 33.1L115.1 33.4L114.7 33.8L114.4 33.4ZM67.8 33.4L68.2 33.1L68.6 33.4L68.2 33.8L67.8 33.4ZM114.7 33.1L115.1 32.7H115.5L115.8 33.1L115.5 33.4H115.1L114.7 33.1ZM100.3 33.1L100.7 32.7L101 33.1L100.7 33.4L100.3 33.1ZM115.5 32.7L115.8 32.3H116.2L116.5 32.7L116.2 33.1H115.8L115.5 32.7ZM100.7 32.7L101 32.3L101.4 32.7L101 33.1L100.7 32.7ZM69.7 32.7L70 32.3L70.4 32.7L70 33.1L69.7 32.7ZM116.2 32.3L116.5 32L116.9 32.3L116.5 32.7L116.2 32.3ZM101 32.3L101.4 32L101.8 32.3L101.4 32.7L101 32.3ZM70.4 32.3L70.7 32L71.1 32.3L70.7 32.7L70.4 32.3ZM116.9 32L117.3 31.6L117.6 32L117.3 32.3L116.9 32ZM101.4 32L101.8 31.6L102.1 32L101.8 32.3L101.4 32ZM71.1 32L71.5 31.6L71.8 32L71.5 32.3L71.1 32ZM117.3 31.6L117.6 31.3H118L118.4 31.6L118 32H117.6L117.3 31.6ZM101.8 31.6L102.1 31.3L102.5 31.6L102.1 32L101.8 31.6ZM100.3 31.6L100.7 31.3L101 31.6L100.7 32L100.3 31.6ZM71.8 31.6L72.2 31.3H72.5L72.9 31.6L72.5 32H72.2L71.8 31.6ZM118 31.3L118.4 30.9L118.7 31.3L118.4 31.6L118 31.3ZM72.5 31.3L72.9 30.9H73.3L73.6 31.3L73.3 31.6H72.9L72.5 31.3ZM118.7 30.9L119.1 30.5L119.4 30.9L119.1 31.3L118.7 30.9ZM102.1 30.9L102.5 30.5L102.8 30.9V31.3L102.5 31.6L102.1 31.3V30.9ZM73.6 30.9L74 30.5L74.3 30.9L74 31.3L73.6 30.9ZM119.4 30.5L119.8 30.2L120.2 30.5L119.8 30.9L119.4 30.5ZM74.7 30.5L75.1 30.2L75.4 30.5L75.1 30.9L74.7 30.5ZM119.8 30.2L120.2 29.8H120.5L120.9 30.2L120.5 30.5H120.2L119.8 30.2ZM75.8 30.2L76.1 29.8H76.5L76.9 30.2L76.5 30.5H76.1L75.8 30.2ZM120.5 29.8L120.9 29.5L121.2 29.8L120.9 30.2L120.5 29.8ZM121.2 29.5L121.6 29.1L122 29.5L121.6 29.8L121.2 29.5ZM102.8 29.1L103.2 29.5V30.2L102.8 30.5L102.5 30.2V29.5L102.8 29.1ZM122 29.1L122.3 28.7L122.7 29.1L122.3 29.5L122 29.1ZM78.7 29.1L79 28.7H79.8L80.1 29.1L79.8 29.5H79L78.7 29.1ZM122.3 28.7L122.7 28.4H123L123.4 28.7L123 29.1H122.7L122.3 28.7ZM79.8 28.7L80.1 28.4H80.8L81.2 28.7L80.8 29.1H80.1L79.8 28.7ZM123 28.4L123.4 28L123.8 28.4L123.4 28.7L123 28.4ZM123.8 28L124.1 27.7L124.5 28L124.1 28.4L123.8 28ZM124.5 27.7L124.8 27.3L125.2 27.7L124.8 28L124.5 27.7ZM100 27.7L100.3 27.3H101L101.4 27.7H101.8L102.8 28.7V29.1L102.5 29.5L101.4 28.4H101L100 27.7ZM125.2 27.3L125.6 26.9L125.9 27.3L125.6 27.7L125.2 27.3ZM98.9 27.3L99.2 26.9H100L100.3 27.3L100 27.7H99.2L98.9 27.3ZM125.9 26.9L126.3 26.6L126.7 26.9L126.3 27.3L125.9 26.9ZM133.5 24.4L133.1 24.8V25.9L132.8 26.2V26.9L132.4 27.3V28.4L131.7 29.5V30.2L131.3 30.5V31.3L131 31.6V32.3L130.6 32.7V33.4L129.5 35.2V35.9L129.2 36.3V36.6L128.8 37V37.4L128.5 37.7V38.1L128.1 38.4V38.8L127.7 39.2V39.5L127.4 39.9L127 41L126.3 41.7V42L125.9 42.4L125.6 43.5L124.8 44.2V44.6L124.1 45.3V45.6L123.4 46.3V46.7L122.7 47.4V47.8L122 48.5V48.9L121.2 49.6V49.9L120.2 51V51.4L118.7 52.8V53.2L115.8 56.1V56.4L113.7 58.6H113.3L110.4 61.4H110.1L108.6 62.9H108.3L107.2 64H106.8L106.1 64.7H105.7L105 65.4H104.6L102.8 66.8H102.5L102.1 67.2H101.8L101.4 67.5H101L100.7 67.9L99.6 68.3L98.9 69H98.5L96.7 70.1H96L94.9 70.8H94.2L93.8 71.1H93.1L92.7 71.5H92L91.7 71.9H90.9L90.6 72.2H89.5L89.1 72.6H88.1L87.7 72.9H85.9L85.5 73.3H83.7L83.4 73.7H79.8L79.4 74H75.4L75.1 73.7H73.3L72.9 73.3H71.1L70.7 72.9H69.7L69.3 72.6H68.2L67.1 71.9H66.4L66 71.5H65.7L65.3 71.1H65L64.6 70.8H64.2L63.9 70.4L62.8 70.1L61.7 69L62.1 68.6L61.7 68.3L61.4 68.6L60.6 67.9V67.5L61.4 66.8L62.4 66.5L64.2 65L65.3 64.7L66 64H66.4L68.2 62.5L69.3 62.2L70 61.4H70.4L72.2 60L73.3 59.6L74 58.9H74.3L75.1 58.2H75.4L76.1 57.5H76.5L78.3 56.1L79.4 55.7L81.2 54.3L82.3 53.9L83 53.2H83.4L84.1 52.5H84.4L86.2 51L87.3 50.7L88.1 49.9H88.4L90.2 48.5L91.3 48.1L92 47.4H92.4L94.2 46L95.3 45.6L97.1 44.2L98.2 43.8L98.9 43.1L100 42.8L100.7 42L101.8 41.7L102.5 41L103.6 40.6L104.3 39.9L105.4 39.5L106.1 38.8L107.2 38.4L107.9 37.7H108.3L108.6 37.4L109.7 37L110.4 36.3L111.5 35.9L112.2 35.2L113.3 34.9L114 34.1H114.4L114.7 33.8H115.1L115.5 33.4H115.8L116.2 33.1L117.3 32.7L118 32H118.4L118.7 31.6H119.1L119.4 31.3H119.8L120.2 30.9L121.2 30.5L122 29.8H122.3L122.7 29.5H123L123.4 29.1H123.8L124.1 28.7H124.5L124.8 28.4L125.9 28L126.7 27.3H127L127.4 26.9H127.7L128.1 26.6L129.2 26.2L129.9 25.5H130.6L131 25.2L132.1 24.8L132.8 24.1H133.1L133.5 24.4ZM133.1 23L133.5 22.6H133.9L134.2 23L133.9 23.4H133.5L133.1 23ZM138.2 20.5L138.6 20.1L138.9 20.5L138.6 20.8L138.2 20.5ZM138.9 20.1L139.3 19.8L139.6 20.1L139.3 20.5L138.9 20.1ZM143.2 17.6L143.6 17.2L144 17.6L143.6 18L143.2 17.6ZM144 9.3L144.3 9.7L141.8 12.2V12.6L140.7 13.7V14L139.3 15.8V16.2L138.9 16.5V17.2L137.8 19V20.8L136.8 22.6V23.4L136.4 23.7V25.2L136 25.5V27.3L135.7 27.7V29.8L135.3 30.2V32.3L134.9 32.7V34.5L134.6 34.9V36.3L134.2 36.6V37.7L133.9 38.1V39.2L133.5 39.5V40.2L133.1 40.6V41.3L132.4 42.4V43.1L131.3 44.9V45.6L131 46V46.3L130.6 46.7V47.1L130.3 47.4L129.9 48.5L129.2 49.2V49.6L128.8 49.9V50.3L128.1 51L127.7 52.1L126.7 53.2V53.5L125.6 54.6V55L124.5 56.1V56.4L118.4 62.5H118L116.5 64H116.2L115.5 64.7H115.1L114.4 65.4H114L112.2 66.8H111.9L111.5 67.2H111.1L110.8 67.5H110.4L110.1 67.9H109.7L109.3 68.3H109L108.6 68.6H108.3L106.4 69.7H105.7L103.9 70.8H103.2L102.8 71.1H102.1L101.8 71.5H101L100.7 71.9H99.6L99.2 72.2H98.5L98.2 72.6H97.1L96.7 72.9H95.6L95.3 73.3H93.5L93.1 73.7H91.7L91.3 74H89.5L89.1 74.4H86.2L85.9 74.7H81.2L80.8 74.4L81.2 74H84.4L84.8 73.7H87L87.3 73.3H88.8L89.1 72.9H90.2L90.6 72.6H91.3L91.7 72.2H92.4L92.7 71.9H93.5L93.8 71.5H94.5L95.6 70.8H96.3L96.7 70.4H97.1L97.4 70.1H97.8L98.2 69.7H98.5L98.9 69.3H99.2L99.6 69H100L100.3 68.6H100.7L101 68.3L102.1 67.9L102.8 67.2L103.9 66.8L104.6 66.1H105L105.7 65.4H106.1L106.8 64.7H107.2L107.9 64H108.3L109.3 62.9H109.7L111.5 61.1H111.9L118.4 54.6V54.3L120.5 52.1V51.7L121.2 51V50.7L122 49.9V49.6L123 48.5V48.1L124.5 46.3L124.8 45.3L125.6 44.6L125.9 43.5L126.7 42.8V42.4L127 42L127.4 41L128.1 40.2V39.9L128.5 39.5V39.2L129.5 37.4V36.6L130.6 34.9V34.1L131 33.8V33.1L131.7 32V31.3L132.1 30.9V30.2L132.4 29.8V29.1L132.8 28.7V28L133.1 27.7V26.9L133.5 26.6V25.9L133.9 25.5V24.4L134.2 24.1V23L133.9 22.6L134.9 21.9V21.2L135.7 20.1V19.4L136 19V18.7L136.4 18.3V18L136.8 17.6L137.1 16.5L137.8 15.8V15.4L138.6 14.7V14.4L139.6 13.3V12.9L141.8 10.8H142.2L143.6 9.3H144ZM144 9.3L144.3 9H144.7L145 9.3L144.7 9.7H144.3L144 9.3ZM144.7 9L145 8.6L145.4 9L145 9.3L144.7 9ZM145.4 8.6L145.8 8.3L146.1 8.6L145.8 9L145.4 8.6ZM152.3 9V9.3L151.9 9.7V10.4L150.8 11.5V11.9L150.1 12.6H149.7L148.3 14H147.9L147.2 14.7H146.9L146.1 15.4H145.8L144 16.9H143.6L143.2 17.2L142.2 17.6L141.4 18.3H141.1L140.7 18.7L139.6 19L138.9 19.8L138.6 19.4V19L138.9 18.7V18L139.3 17.6V17.2L139.6 16.9L140 15.8L140.7 15.1L141.1 14L142.5 12.6V12.2L145 9.7H145.4L145.8 9.3H146.1L147.9 8.3H148.7L149 7.9H151.2L152.3 9ZM146.1 8.3L146.5 7.9L146.9 8.3L146.5 8.6L146.1 8.3ZM146.9 7.9L147.2 7.5L147.6 7.9L147.2 8.3L146.9 7.9Z" fill="#D1EFE6"/><path fill-rule="evenodd" clip-rule="evenodd" d="M526 28.7L525.6 28.4V26.6L525.3 26.2V25.2L524.9 24.8V24.1L524.6 23.7V23L523.8 21.9V21.2L523.5 20.8V20.5L523.1 20.1V19.8L522.8 19.4L522.4 18.3L521.7 17.6V17.2L520.6 16.2V15.8L519.5 14.7V14.4L515.9 10.8H515.5L514.5 9.7H514.1L513 8.6H512.7L510.8 7.2H510.5L510.1 6.8H509.8L509.4 6.5H509L508.7 6.1H508.3L508 5.7H507.6L505.8 4.7H505.1L504 4H503.3L502.9 3.6H502.2L501.8 3.2H501.1L500.7 2.9H500L499.7 2.5H498.6L498.2 2.2H497.5L497.1 1.8H496.1L495.7 1.4H494.3L493.9 1.1H492.4L492.1 0.7H489.9L489.6 0.4H486.3L486 0H472.6L472.2 0.4H468.3L467.9 0.7H465.8L465.4 1.1H464L463.6 1.4H462.1L461.8 1.8H460L459.6 2.2H458.5L458.2 2.5H457.1L456.7 2.9H455.7L455.3 3.2H454.2L453.9 3.6H453.1L452.8 4H451.7L451.3 4.3H450.6L450.2 4.7H449.5L449.2 5H448.4L447.4 5.7H446.6L446.3 6.1H445.6L445.2 6.5H444.5L443.4 7.2H442.7L441.6 7.9H440.9L439.1 9H438.3L438 9.3H437.6L437.3 9.7H436.9L436.5 10.1H436.2L435.8 10.4H435.5L435.1 10.8H434.7L434.4 11.1H434L433.6 11.5H433.3L432.9 11.9H432.6L432.2 12.2H431.8L431.5 12.6H431.1L430.8 12.9L429.7 13.3L429 14H428.6L428.2 14.4H427.9L427.5 14.7L426.4 15.1L425.7 15.8H425.4L424.6 16.5H424.3L423.5 17.2H423.2L422.5 18H422.1L421.4 18.7H421L420.3 19.4H419.9L418.9 20.5H418.5L417.8 21.2H417.4L414.9 23.4H414.5L414.2 23L413.8 23.4L414.2 23.7L412.7 25.2H412.4L410.2 27.3H409.8L398.3 38.8V39.2L395 42.4V42.8L392.2 45.6H391.8L389.3 48.1H388.9L388.2 48.9H387.8L387.5 48.5L388.6 47.4V47.1L391.1 44.6V44.2L392.9 42.4V42L394.3 40.6V40.2L395.4 39.2V38.8L396.1 38.1V37.7L396.9 37V36.6L398.3 34.9V34.5L398.7 34.1V33.8L399 33.4V33.1L399.4 32.7V32.3L399.7 32V31.6L400.8 29.8V29.1L401.2 28.7V28L401.5 27.7V26.2L401.9 25.9V21.2L401.5 20.8V19.8L400.8 19V18.7L399 16.9H398.7L397.6 16.2H396.5L396.1 15.8H394L393.6 15.4H389.6L389.3 15.8H386L385.7 16.2H384.2L383.9 16.5H382.4L382.1 16.9H381.3L381 17.2H380.3L379.9 17.6H379.2L378.8 18H378.1L377.7 18.3H377.4L377 18.7H376.3L375.2 19.4H374.5L372.7 20.5H372L371.6 20.8H371.2L370.9 21.2H370.5L370.2 21.6L369.1 21.9L368.4 22.6L367.3 23L366.5 23.7H366.2L365.5 24.4H365.1L364.4 25.2H364L362.9 26.2H362.6L361.5 27.3H361.1L358.6 29.8H358.3L356.4 31.6H356.1L355 32.7H354.6L353.9 33.4H353.6L352.8 34.1H352.5L351.8 34.9H351.4L350.7 35.6H350.3L349.2 36.6H348.9L347.8 37.7H347.4L346.7 38.4H346.3L345.3 39.5H344.9L344.2 40.2H343.8L342.7 41.3H342.4L341.7 42H341.3L340.2 43.1H339.9L338.8 44.2H338.4L337.3 45.3H337L335.5 46.7H335.2L333.7 48.1H333.4L332.3 49.2H331.9L330.5 50.7H330.1L329 51.7H328.7L327.2 53.2H326.9L325.1 55H324.7L323.6 56.1H323.3L321.5 57.8H321.1L319.3 59.6L319.7 60V60.4L320.7 60L322.2 58.6H322.5L324.3 56.8H324.7L327.9 53.9H328.3L329.4 52.8H329.8L333 49.9H333.4L334.4 48.9H334.8L335.9 47.8H336.2L337.3 46.7H337.7L338.8 45.6H339.1L341.7 43.5H342L342.7 42.8H343.1L344.2 41.7H344.5L345.3 41H345.6L346.7 39.9H347.1L347.8 39.2H348.2L348.9 38.4H349.2L350.3 37.4H350.7L351 37.7L350 38.8V39.2L348.5 40.6V41L347.4 42V42.4L346 44.2L345.6 45.3L344.2 47.1V47.4L343.8 47.8V48.1L343.5 48.5V48.9L343.1 49.2V49.6L342.7 49.9V50.3L342.4 50.7V51L341.3 52.8V53.5L340.9 53.9V54.6L340.6 55V55.7L340.2 56.1V57.1L339.9 57.5V58.9L339.5 59.3V64L339.9 64.3V65.4L340.2 65.8V66.5L340.6 66.8V67.2L341.3 67.9V68.3L342.7 69.7H343.1L343.5 70.1H343.8L345.6 71.1H346.7L347.1 71.5H352.8L353.2 71.1H354.3L354.6 70.8H355.4L355.7 70.4H356.8L357.2 70.1H357.5L357.9 69.7H358.6L359 69.3H359.3L361.1 68.3H361.9L362.2 67.9L363.3 67.5L364 66.8L365.1 66.5L365.8 65.8L366.9 65.4L367.6 64.7H368L368.7 64H369.1L369.8 63.2H370.2L371.2 62.2H371.6L372.3 61.4H372.7L374.1 60H374.5L375.6 58.9H375.9L378.1 56.8H378.5L381 54.3H381.3L382.4 53.2L382.8 53.5L383.5 52.8L383.1 52.5L383.5 52.1H383.9L384.2 51.7H384.9L385.3 51.4H386L387.8 50.3H388.2L388.9 49.6H389.3L391.8 47.4H392.2L392.5 47.1L392.9 47.4L393.6 46.7L393.2 46.3L397.6 42V41.7L401.5 37.7V37.4L409.1 29.8H409.5L412.4 26.9H412.7L414.5 25.2H414.9L416.3 23.7H416.7L417.8 22.6H418.1L420.7 20.5H421L422.8 19L423.9 18.7L424.6 18H425L425.7 17.2H426.1L427.9 15.8H428.2L428.6 15.4L429.7 15.1L430.4 14.4H430.8L431.1 14H431.5L431.8 13.7L432.9 13.3L433.6 12.6H434L434.4 12.2H434.7L435.1 11.9H435.5L437.3 10.8H438L439.8 9.7H440.5L440.9 9.3H441.2L442.3 8.6H443L444.8 7.5H445.6L445.9 7.2H446.6L447 6.8H447.7L448.1 6.5H448.8L449.9 5.7H450.6L451 5.4H451.7L452 5H453.1L453.5 4.7H454.2L454.6 4.3H455.7L456 4H457.1L457.5 3.6H458.5L458.9 3.2H460.3L460.7 2.9H462.1L462.5 2.5H464L464.3 2.2H466.1L466.5 1.8H469L469.4 1.4H470.1L470.4 1.8L470.8 1.4H473L473.3 1.1H473.7L474.1 1.4H474.4L474.8 1.1H486L486.3 1.4H488.8L489.2 1.8H491.7L492.1 2.2H493.9L494.3 2.5H495.7L496.1 2.9H497.1L497.5 3.2H498.6L498.9 3.6H499.7L500 4H500.7L501.1 4.3H501.8L502.2 4.7H502.9L504 5.4H504.7L505.1 5.7H505.4L505.8 6.1H506.2L506.5 6.5H506.9L507.2 6.8H507.6L508 7.2H508.3L508.7 7.5L509.8 7.9L510.5 8.6H510.8L511.6 9.3H511.9L512.7 10.1H513L513.7 10.8H514.1L515.5 12.2H515.9L517.3 13.7V14L519.5 16.2V16.5L521 18.3L521.3 19.4L522 20.1V20.5L522.8 21.6V22.3L523.5 23.4V24.1L523.8 24.4V25.5L524.2 25.9V26.9L524.6 27.3V29.1L524.9 29.5V36.3L524.6 36.6V38.4L524.2 38.8V39.9L523.8 40.2V41L523.5 41.3V42L523.1 42.4V43.5L522.8 43.8V44.2L522.4 44.6V45.3L522 45.6V46L521.7 46.3V46.7L521.3 47.1V47.4L521 47.8L520.6 48.9L519.9 49.6L519.5 50.7L518.8 51.4V51.7L518.1 52.5V52.8L517.3 53.5V53.9L515.5 55.7V56.1L508.3 63.2H508L506.9 64.3H506.5L505.1 65.8H504.7L504 66.5H503.6L502.9 67.2H502.6L501.8 67.9H501.5L499.7 69.3H499.3L498.9 69.7H498.6L497.9 70.4H497.5L497.1 70.8H496.8L496.4 71.1H496.1L495.7 71.5L494.6 71.9L493.9 72.6H493.5L491.7 73.7H491L489.2 74.7H488.5L486.7 75.8H486L484.9 76.5H484.2L483.8 76.9H483.1L482.7 77.2H482L480.9 78H480.2L479.8 78.3H478.7L478.4 78.7H477.7L477.3 79H476.6L476.2 79.4H475.5L475.1 79.8H474.1L473.7 80.1H472.6L472.2 80.5H471.2L470.8 80.8H469.7L469.4 81.2H467.9L467.6 81.6H466.1L465.8 81.9H464.3L464 82.3H462.1L461.8 82.6H460L459.6 83H456.7L456.4 83.4H451.7L451.3 83.7H443L442.7 83.4V82.3L442.3 81.9V80.5L441.9 80.1V78.7L441.6 78.3V77.6L440.9 76.5V75.8L440.5 75.5V75.1L440.1 74.7V74.4L439.8 74L439.4 72.9L438.3 71.9V71.5L437.3 70.4V70.1L434.4 67.2H434L432.6 65.8H432.2L430.4 64.3H430L429.7 64H429.3L429 63.6H428.6L428.2 63.2H427.9L427.5 62.9H427.2L425.4 61.8H424.6L424.3 61.4H423.5L423.2 61.1H422.5L422.1 60.7H421L420.7 60.4H419.6L419.2 60H417.1L416.7 59.6H414.5L414.2 59.3H408L407.7 59.6H405.1L404.8 60H403.3L403 60.4H401.9L401.5 60.7H400.8L400.5 61.1H399.7L398.7 61.8V62.5L399.4 63.2H399.7L400.1 62.9H400.5L400.8 62.5H401.5L402.6 61.8H403.7L404.1 61.4H404.8L405.1 61.1H406.6L407 60.7H410.6L410.9 60.4H414.9L415.2 60.7H417.8L418.1 61.1H419.2L419.6 61.4H420.7L421 61.8H422.1L422.5 62.2H423.2L424.3 62.9H425L426.8 64H427.5L427.9 64.3H428.2L429 65L430 65.4L431.8 66.8H432.2L436.9 71.5V71.9L438.3 73.7V74L438.7 74.4V74.7L439.8 76.5V77.2L440.1 77.6V78.3L440.5 78.7V79.4L440.9 79.8V81.2L441.2 81.6V83.4L440.9 83.7H436.5L436.2 83.4H428.6L428.2 83H424.6L424.3 82.6H420.7L420.3 82.3H417.8L417.4 81.9H414.9L414.5 81.6H412L411.6 81.2H409.1L408.8 80.8H405.9L405.5 80.5H402.3L401.9 80.1H398.7L398.3 79.8H394.7L394.3 79.4H390.7L390.4 79H384.9L384.6 78.7H377.7L377.4 78.3H368.4L368 78.7H360.8L360.4 79H356.8L356.4 79.4H353.6L353.2 79.8H350.3L350 80.1H347.8L347.4 80.5H345.3L344.9 80.8H343.5L343.1 81.2H341.3L340.9 81.6H339.5L339.1 81.9H337.7L337.3 82.3H336.2L335.9 82.6H334.8L334.4 83H333.4L333 83.4H331.9L331.6 83.7H330.8L330.5 84.1H329.4L329 84.4H328.3L327.9 84.8H326.9L326.5 85.2H325.8L325.4 85.5H324.7L324.3 85.9H323.6L323.3 86.2H322.5L322.2 86.6H321.5L321.1 86.9H320.4L319.3 87.7H318.6L318.2 88H317.5L316.4 88.7H315.7L315.3 89.1H315L314.6 89.5H313.9L312.8 90.2H312.1L311.7 90.5H311.4L309.6 91.6H308.8L308.5 92H308.1L307.7 92.3H307.4L307 92.7H306.7L306.3 93.1H305.9L304.1 94.1H303.4L303.1 94.5H302.7L302 95.2H301.6L301.3 95.6H300.9L300.5 95.9H300.2L299.8 96.3H299.4L299.1 96.7H298.7L296.9 97.7L296.2 97V96.7L295.5 95.9V95.6L294 93.8V93.4L293.7 93.1V92.7L293.3 92.3V92L293 91.6V91.3L291.9 89.5V88.7L291.5 88.4V87.7L291.2 87.3V86.6L290.8 86.2V85.2L290.4 84.8V83.4L290.1 83V78L290.4 77.6V76.2L290.8 75.8V74.7L291.2 74.4V73.7L291.5 73.3V72.6L291.9 72.2V71.9L292.2 71.5V71.1L292.6 70.8V70.4L293 70.1L293.3 69L294 68.3L294.4 67.2L295.1 66.5V66.1L296.2 65V64.7L296.9 64V63.6L299.4 61.1V60.7L303.4 56.8H303.8L307.4 53.2H307.7L315 46H315.3L317.5 43.8V43.5L318.9 42V41.7L319.3 41.3V41L320.4 39.2V38.4L320.7 38.1V35.9L320.4 35.6V35.2L318.9 33.8H318.6L318.2 33.4H314.6L314.2 33.8H313.2L312.8 34.1H311.4L311 34.5H310.3L309.9 34.9H309.2L308.8 35.2H308.1L307 35.9H306.3L304.5 37H303.8L303.4 37.4H303.1L302.7 37.7H302.3L302 38.1H301.6L301.3 38.4H300.9L300.5 38.8H300.2L299.8 39.2H299.4L299.1 39.5H298.7L298.4 39.9L297.3 40.2L296.6 41H296.2L295.8 41.3L294.8 41.7L294 42.4H293.7L293.3 42.8L292.2 43.1L290.4 44.6H290.1L289.7 44.9L288.6 45.3L287.9 46L286.8 46.3L286.1 47.1H285.7L283.9 48.5H283.6L283.2 48.9H282.9L282.1 49.6L281.1 49.9L280.3 50.7H280L279.2 51.4H278.9L277.8 52.5L276.7 52.8L276 53.5H275.6L274.9 54.3H274.6L274.2 53.9L274.9 53.2V52.8L278.9 48.9V48.5L281.1 46.3V46L283.6 43.5V43.1L285 41.7V41.3L286.5 39.9V39.5L287.5 38.4V38.1L288.3 37.4V37L289.7 35.2V34.9L290.1 34.5L290.4 33.4L291.2 32.7V32L291.9 30.9V30.2L292.2 29.8V26.6L291.9 26.2L291.5 25.2L290.4 24.1H290.1L289.7 23.7H289L288.6 23.4H286.8L286.5 23.7H285.4L285 24.1H283.9L283.6 24.4H282.9L282.5 24.8H281.8L280.7 25.5H280L279.6 25.9H279.2L278.9 26.2H278.5L276.7 27.3H276L275.3 28H274.9L274.6 28.4H274.2L273.8 28.7L272.8 29.1L272 29.8H271.7L271.3 30.2H271L270.6 30.5H270.2L269.9 30.9L268.8 31.3L267 32.7L265.9 33.1L264.1 34.5L263 34.9L262.3 35.6H261.9L261.2 36.3H260.9L260.1 37H259.8L259 37.7H258.7L258 38.4H257.6L256.9 39.2H256.5L255.8 39.9H255.4L254.7 40.6H254.4L251.8 42.8H251.5L250.7 43.5H250.4L249.7 44.2H249.3L248.2 45.3H247.9L247.1 46H246.8L245.7 47.1H245.3L244.6 47.8H244.3L243.2 48.9H242.8L242.5 48.5L245 46H245.3L245.7 45.6V45.3L253.6 37.4V37L255.8 34.9V34.5L257.2 33.1V32.7L258.3 31.6V31.3L259 30.5V30.2L259.4 29.8V29.5L260.1 28.7V28.4L260.9 27.3V26.6L261.2 26.2V25.2L261.6 24.8V23.7L261.2 23.4L260.9 22.3H260.5L259.8 21.6H259L258.7 21.2H257.2L256.9 21.6H255.8L255.4 21.9H254.4L253.3 22.6H252.6L252.2 23H251.8L251.5 23.4H251.1L250.7 23.7H250.4L250 24.1H249.7L249.3 24.4H248.9L248.6 24.8H248.2L247.9 25.2L246.8 25.5L246.1 26.2L245 26.6L244.3 27.3H243.9L243.5 27.7H243.2L242.5 28.4L241.4 28.7L240.6 29.5H240.3L239.6 30.2H239.2L238.5 30.9H238.1L236.3 32.3L235.2 32.7L234.5 33.4H234.2L233.4 34.1H233.1L232.4 34.9H232L231.3 35.6H230.9L230.2 36.3H229.8L228 37.7L226.9 38.1L226.2 38.8H225.9L224.1 40.2L223 40.6L222.2 41.3L221.2 41.7L220.4 42.4L219.4 42.8L218.6 43.5H218.3L217.9 43.8H217.6L217.2 44.2L216.1 44.6L215.4 45.3H215L214.7 45.6H214.3L214 46H213.6L213.2 46.3H212.9L212.5 46.7H212.1L210.3 47.8H209.6L209.3 48.1H208.9L208.5 48.5H207.8L206.7 49.2H206L205.7 49.6H204.9L203.9 50.3H202.8L202.4 50.7H201.7L201.3 51H200.2L199.9 51.4H196.3L195.9 51.7H194.5L194.1 51.4L195.2 50.3H195.6L195.9 50.7H196.3V50.3L197 49.6L196.6 49.2L200.2 45.6L201 44.9V44.6L204.6 41V40.6L206 39.2V38.8L208.2 36.3V35.9L208.9 35.2V34.9L210.3 33.1V32.7L210.7 32.3L211.1 31.3L211.8 30.5V30.2L212.1 29.8V29.1L212.5 28.7V28.4L212.9 28V27.3L213.2 26.9V25.9L213.6 25.5V24.4L214 24.1V21.6L213.6 21.2V20.1L213.2 19.8L212.9 18.7L210.7 16.5H210L209.6 16.2H208.9L208.5 15.8H204.2L203.9 15.4H202.8L202.4 15.8H197.7L197.4 16.2H195.6L195.2 16.5H194.1L193.8 16.9H192.3L191.9 17.2H191.2L190.9 17.6H189.8L189.4 18H188.7L188.3 18.3H187.6L187.3 18.7H186.2L185.8 19V19.4H186.9L187.3 19H188L188.3 18.7H189.4L189.8 18.3H190.5L190.9 18H191.6L191.9 17.6H193L193.4 17.2H194.8L195.2 16.9H197L197.4 16.5H200.2L200.6 16.2H207.5L207.8 16.5L207.5 16.9H205.7L205.3 17.2H203.9L203.5 16.9H203.1L202.8 17.2H202L200.2 18.3H199.2L198.8 18.7H198.4L197.4 19.4H196.6L196.3 19.8H195.6L195.2 20.1H194.8L194.1 20.8H193.8L193.4 21.2H193L192.7 21.6L191.6 21.9L190.9 22.6H190.5L190.1 23H189.8L189.1 23.7H188.7L188 24.4H187.6L186.9 25.2H186.5L185.8 25.9H185.5L184.7 26.6H184.4L183.6 27.3H183.3L182.2 28.4H181.8L180.4 29.8H180L179 30.9H178.6L176.8 32.7H176.4L171.7 37.4H171.4L171 37.7V38.1L166 43.1V43.5L163.8 45.6V46L162.4 47.4V47.8L161.6 48.5V48.9L160.6 49.9V50.3L159.8 51V51.4L158.8 52.5V52.8L158 53.5L157.7 54.6L157 55.3V55.7L156.6 56.1V56.4L155.5 58.2V58.9L154.8 60V60.7L154.4 61.1V62.2L154.1 62.5V64.3L153.7 64.7L154.1 65V66.8L154.4 67.2V67.9L154.8 68.3V68.6L155.9 69.3L155.5 69.7H154.8L154.4 69.3H154.1L151.5 66.8V66.5L150.8 65.4V64.3L150.5 64V58.6L150.8 58.2V57.5L151.2 57.1V56.4L151.5 56.1V55.3L151.9 55V54.3L152.3 53.9V53.5L152.6 53.2V52.8L153 52.5V52.1L153.3 51.7V51.4L153.7 51V50.7L154.1 50.3L154.4 49.2L155.2 48.5L155.5 47.4L156.2 46.7V46.3L157 45.6V45.3L157.7 44.6V44.2L158.8 43.1V42.8L159.8 41.7V41.3L161.6 39.5V39.2L163.8 37V36.6L169.2 31.3H169.6L172.1 28.7H172.5L173.9 27.3H174.3L175.4 26.2H175.7L178.2 24.1H178.6L179.3 23.4H179.7L180.4 22.6H180.8L181.8 21.6V21.2H181.5L181.1 21.6H180L179.7 21.2L180 20.8H180.8L181.1 20.5H182.2L182.6 20.1H180.4L179.3 20.8H178.6L178.2 21.2H177.5L177.2 21.6H176.8L176.4 21.9H176.1L175.7 22.3H175.4L175 22.6H174.6L174.3 23H173.9L173.5 23.4H173.2L172.8 23.7H172.5L172.1 24.1H171.7L171.4 24.4L170.3 24.8L169.6 25.5H169.2L168.9 25.9H168.5L167.8 26.6L166.7 26.9L164.9 28.4L163.8 28.7L163.1 29.5H162.7L162 30.2H161.6L160.9 30.9H160.6L159.8 31.6H159.5L158.4 32.7H158L157.3 33.4H157L155.9 34.5H155.5L154.8 35.2H154.4L151.9 37.4H151.5L150.8 38.1H150.5L149 39.5H148.7L147.9 40.2H147.6L146.5 41.3H146.1L144.7 42.8H144.3L143.2 43.8H142.9L141.8 44.9H141.4L140 46.3H139.6L138.2 47.8H137.8L136.4 49.2H136V49.6H136.4L136.8 49.2L137.1 49.6V49.9H137.8L141.8 46.3H142.2L143.2 45.3H143.6L145 43.8H145.4L146.5 42.8H146.9L147.9 41.7H148.3L149.4 40.6H149.7L151.2 39.2H151.5L152.3 38.4H152.6L155.2 36.3H155.5L156.2 35.6H156.6L157.3 34.9H157.7L158.8 33.8H159.1L159.8 33.1H160.2L161.3 32H161.6L162.4 31.3H162.7L163.4 30.5H163.8L165.6 29.1H166L166.3 28.7H166.7L167.4 28H167.8L168.1 27.7L169.2 27.3L169.9 26.6H170.3L170.7 26.2H171L171.4 25.9H171.7L172.1 25.5H172.5L172.8 25.2H173.2L173.5 24.8H173.9L174.3 24.4H174.6L175 24.1H175.4L177.2 23H177.9L178.2 22.6H178.6L179 23L178.2 23.7H177.9L176.1 25.2H175.7L174.3 26.6H173.9L172.5 28H172.1L170.3 29.8H169.9L162.4 37.4V37.7L160.2 39.9V40.2L158.8 41.7V42L157.7 43.1V43.5L157 44.2V44.6L155.9 45.6V46L155.2 46.7L154.8 47.8L154.1 48.5V48.9L153.7 49.2V49.6L153.3 49.9V50.3L153 50.7V51L152.6 51.4V51.7L151.5 53.5V54.3L150.8 55.3V56.4L150.5 56.8V57.5L150.1 57.8V59.3L149.7 59.6V63.2L150.1 63.6V64.7L150.5 65V65.8L150.8 66.1L151.2 67.2L152.6 68.6V69H153L153.7 69.7H154.1L155.2 70.4H155.9L156.2 70.8H157.3L157.7 71.1H160.9L161.3 70.8H162.7L163.1 70.4H163.8L164.2 70.1H165.3L165.6 69.7H166.3L166.7 69.3H167.4L167.8 69H168.1L169.9 67.9H170.7L171 67.5L172.1 67.2L172.8 66.5H173.2L173.5 66.1L174.6 65.8L175.4 65L176.4 64.7L177.2 64H177.5L178.2 63.2H178.6L179.3 62.5H179.7L180.4 61.8H180.8L181.5 61.1H181.8L182.6 60.4H182.9L184 59.3H184.4L185.1 58.6H185.5L186.9 57.1H187.3L188.3 56.1H188.7L190.1 54.6H190.5L192.3 52.8H198.4L198.8 52.5H200.2L200.6 52.1H201.7L202 51.7H203.1L203.5 51.4H204.2L204.6 51H205.3L205.7 50.7H206.4L206.7 50.3H207.5L207.8 49.9H208.5L208.9 49.6H209.3L211.1 48.5H211.8L212.1 48.1H212.5L212.9 47.8H213.2L213.6 47.4H214L214.3 47.1L215.4 46.7L216.1 46H216.5L218.3 44.9H218.6L219.4 44.2L220.4 43.8L222.2 42.4L223.3 42L224.1 41.3L225.1 41L225.9 40.2H226.2L228 38.8L229.1 38.4L230.9 37L232 36.6L232.7 35.9H233.1L233.8 35.2H234.2L235.2 34.1H235.6L237.4 32.7L238.5 32.3L239.2 31.6H239.6L240.3 30.9H240.6L242.5 29.5L243.5 29.1L244.3 28.4H244.6L245 28L246.1 27.7L246.8 26.9H247.1L247.5 26.6H247.9L248.2 26.2H248.6L250.4 25.2H250.7L251.1 25.5L250.7 25.9L251.8 25.2L251.5 24.8L252.2 24.1H252.6L252.9 23.7H253.6L254.7 23H255.8L256.2 22.6H258L258.3 23V23.7L256.2 25.9L255.8 25.5L254.7 26.2L254.4 25.9L255.4 26.6L250.7 31.3H250.4L247.9 33.8H247.5L240.3 41H239.9L235.2 45.6H234.9L232 48.5H231.6L227.7 52.5H227.3L221.9 57.8H221.5L215.4 64H215L212.1 66.8L212.5 67.2H215.8L216.1 66.8H220.8L221.2 67.2H223L224.1 66.1H224.4L225.5 65H225.9L227.3 63.6H227.7L229.5 61.8H229.8L231.3 60.4H231.6L233.1 58.9H233.4L234.9 57.5H235.2L236.7 56.1H237L238.8 54.3H239.2L240.3 53.2H240.6L242.5 51.4H242.8L243.9 50.3H244.3L245.7 48.9H246.1L247.1 47.8H247.5L248.9 46.3H249.3L250.4 45.3H250.7L251.8 44.2H252.2L254.7 42H255.1L255.8 41.3H256.2L258.7 39.2H259L259.8 38.4H260.1L261.9 37L263 36.6L263.7 35.9H264.1L265.9 34.5L267 34.1L267.7 33.4L268.8 33.1L269.5 32.3H269.9L270.2 32H270.6L271 31.6L272 31.3L272.8 30.5H273.1L273.5 30.2H273.8L274.2 29.8L275.3 29.5L276 28.7H276.4L277.4 28H278.2L278.5 27.7H278.9L280.7 26.6H281.4L282.5 25.9H283.2L283.6 25.5H284.3L284.7 25.2H285.7L286.1 24.8H289L289.3 25.2V27.7L289 28V28.4L288.3 29.1L287.9 30.2L286.8 31.3V31.6L285.7 32.7V33.1L283.9 34.9V35.2L278.9 40.2V40.6L263.7 55.7V56.1L256.9 62.9V63.6L257.2 64H258L258.3 63.6H259.4L259.8 63.2H263.7L264.1 63.6H265.9L266.3 63.2V62.9L269.5 59.6H269.9L270.6 58.9H271L272 57.8H272.4L273.1 57.1H273.5L274.6 56.1H274.9L277.4 53.9H277.8L278.5 53.2H278.9L279.6 52.5H280L280.7 51.7H281.1L282.1 50.7H282.5L284.3 49.2L285.4 48.9L286.1 48.1L287.2 47.8L287.9 47.1H288.3L288.6 46.7L289.7 46.3L290.4 45.6H290.8L291.2 45.3L292.2 44.9L293 44.2L294 43.8L294.8 43.1H295.1L295.5 42.8H295.8L296.2 42.4H296.6L296.9 42L298 41.7L298.7 41H299.1L299.4 40.6H299.8L300.2 40.2H300.5L300.9 39.9H301.3L301.6 39.5H302L303.8 38.4H304.5L304.9 38.1H305.2L306.3 37.4H307L308.1 36.6H308.8L309.2 36.3H309.9L310.3 35.9H311L311.4 35.6H312.1L312.4 35.2H313.5L313.9 34.9H315.7L316 34.5H316.8L317.5 35.2L313.2 39.5H312.8L311.4 41H311L309.9 42H309.6L307.7 43.8H307.4L304.9 46.3H304.5L300.2 50.7V51L298.7 52.5V52.8L297.3 54.3V54.6L295.8 56.1V56.4L293.7 58.9L293.3 60L292.6 60.7L292.2 61.8L291.5 62.5V62.9L290.4 64.7V65.4L289.7 66.5V67.2L289.3 67.5V68.3L289 68.6V69.7L288.6 70.1V71.1L288.3 71.5V74.4L287.9 74.7V79.8L288.3 80.1V83L288.6 83.4V84.8L289 85.2V85.9L289.3 86.2V86.9L289.7 87.3V88L290.1 88.4V89.1L290.4 89.5V89.8L290.8 90.2V90.5L291.2 90.9V91.3L291.5 91.6V92L291.9 92.3L292.2 93.4L293 94.1L293.3 95.2L294 95.9V96.3L295.1 97.4V97.7L295.5 98.1L294.8 98.8L293.7 99.2L293 99.9L291.9 100.2L291.2 101L290.1 101.3L289.3 102L288.3 102.4L287.5 103.1H287.2L286.8 103.5L285.7 103.8L285 104.6H284.7L282.9 106H282.5L282.1 106.4H281.8L281.1 107.1L280 107.4L279.2 108.1H278.9L277.1 109.6L276 109.9L275.3 110.7H274.9L273.1 112.1L272 112.5L271.3 113.2H271L269.1 114.6L268.1 115L267 116.1L265.9 116.4L265.2 117.1L264.1 117.5L263.4 118.2L262.3 118.6L261.6 119.3L260.5 119.6L259.8 120.4H259.4L259 120.7L258 121.1L257.2 121.8H256.9L256.5 122.2H256.2L255.4 122.9H255.1L254.7 123.2H254.4L254 123.6L252.9 124L252.2 124.7H251.8L251.5 125H251.1L250.7 125.4H250.4L250 125.8H249.7L249.3 126.1H248.9L248.6 126.5H248.2L247.9 126.8H247.5L247.1 127.2H246.8L246.4 127.5H246.1L245.7 127.9H245.3L245 128.3H244.6L244.3 128.6H243.9L243.5 129H243.2L242.8 129.3H242.5L242.1 129.7H241.7L239.9 130.8H239.2L238.8 131.1H238.5L236.7 132.2H236L234.9 132.9H234.2L233.8 133.3H233.4L233.1 133.7H232.4L231.3 134.4H230.5L230.2 134.7H229.5L229.1 135.1H228.4L228 135.5H227.3L226.9 135.8H226.2L225.9 136.2H225.1L224.8 136.5H224.1L223.7 136.9H222.6L222.2 137.3H221.5L221.2 137.6H220.4L220.1 138H219L218.6 138.3H217.6L217.2 138.7H216.1L215.8 139H214.7L214.3 139.4H212.9L212.5 139.8H211.1L210.7 140.1H209.6L209.3 140.5H207.5L207.1 140.8H205.3L204.9 141.2H202.4L202 141.6H198.4L198.1 141.9H184.7L184.4 141.6H181.1L180.8 141.2H178.6L178.2 140.8H176.8L176.4 140.5H175L174.6 140.1H173.5L173.2 139.8H172.1L171.7 139.4H171L170.7 139H169.6L169.2 138.7H168.5L167.4 138H166.7L166.3 137.6H165.6L165.3 137.3H164.9L163.1 136.2L163.4 135.8H163.8L162.7 136.2L162.4 135.8H162L161.6 135.5H161.3L160.9 135.1H160.6L160.2 134.7L159.1 134.4L158.4 133.7H158L157 132.6H156.6L155.2 131.1H154.8L153.7 130.1L154.1 129.7H154.4L154.8 130.1H156.6L157 130.4H160.2L160.6 130.8H166L166.3 131.1H177.5L177.9 131.5H178.2L178.6 131.1H185.8L186.2 130.8H190.5L190.9 130.4H194.1L194.5 130.1H197L197.4 129.7H199.2L199.5 129.3H201L201.3 129H202.8L203.1 128.6H204.2L204.6 128.3H206L206.4 127.9H207.5L207.8 127.5H208.9L209.3 127.2H210L210.3 126.8H211.4L211.8 126.5H212.5L212.9 126.1H214L214.3 125.8H215L216.1 125H216.8L217.2 124.7H217.9L218.3 124.3H219L219.4 124H220.1L220.4 123.6H220.8L221.2 123.2H221.9L223.7 122.2H224.4L224.8 121.8H225.1L225.5 121.4H225.9L226.2 121.1H226.6L226.9 120.7H227.3L227.7 120.4H228L228.4 120H228.7L229.1 119.6H229.5L229.8 119.3L230.9 118.9L231.6 118.2H232L232.4 117.8L233.4 117.5L234.2 116.8H234.5L235.2 116.1H235.6L236.3 115.3H236.7L237.8 114.3H238.1L239.6 112.8H239.9L244.6 108.1V107.8L246.1 106.4V106L246.8 105.3V104.9L247.1 104.6V104.2L248.2 102.4V101.7L248.9 100.6V99.2L249.3 98.8V94.9L248.9 94.5V93.4L248.6 93.1V92.7L248.2 92.3V92L247.9 91.6V91.3L247.5 90.9L247.1 89.8L243.5 86.2H243.2L242.5 85.5H242.1L240.3 84.1H239.9L239.6 83.7H239.2L237.4 82.6H236.7L234.9 81.6H234.2L233.8 81.2H233.1L232.7 80.8H232L231.6 80.5H230.5L230.2 80.1H229.1L228.7 79.8H227.7L227.3 79.4H226.2L225.9 79H224.1L223.7 78.7H222.2L221.9 78.3H219.4L219 78H215.8L215.4 77.6H201.7L201.3 78H198.1L197.7 78.3H195.2L194.8 78.7H193L192.7 79H190.9L190.5 79.4H189.1L188.7 79.8H187.3L186.9 80.1H185.8L185.5 80.5H184.4L184 80.8H182.9L182.6 81.2H181.5L181.1 81.6H180.4L180 81.9H179.3L179 82.3H178.2L177.9 82.6H177.2L176.8 83H176.1L175.7 83.4H175L174.6 83.7H174.3L173.9 84.1H173.2L171.4 85.2H170.7L170.3 85.5H169.9L169.6 85.9H169.2L168.9 86.2H168.5L168.1 86.6H167.8L167.4 86.9L166.3 87.3L165.6 88H165.3L164.9 88.4L163.8 88.7L163.1 89.5H162.7L162 90.2H161.6L160.9 90.9H160.6L159.8 91.6H159.5L158 93.1H157.7L151.9 98.8V99.2L149.7 101.7L149.4 102.8L148.7 103.5V103.8L147.6 105.6V106.4L147.2 106.7V107.1L146.9 107.4V108.1L146.5 108.5V109.6L146.1 109.9V111L145.8 111.4V117.8L146.1 118.2V119.6L146.5 120V121.1L146.9 121.4V122.2L147.2 122.5V122.9L147.6 123.2V123.6L147.9 124L148.3 125L149 125.8L149.4 126.8L150.1 127.5L149.7 127.9H148.7L148.3 127.5H146.5L146.1 127.2H144.7L144.3 126.8H142.9L142.5 126.5H141.1L140.7 126.1H139.6L139.3 125.8H138.2L137.8 125.4H136.8L136.4 125H134.9L134.6 124.7H133.5L133.1 124.3H132.4L132.1 124H131L130.6 123.6H129.9L129.5 123.2H128.5L128.1 122.9H127.4L127 122.5H125.9L125.6 122.2H124.8L124.5 121.8H123.8L123.4 121.4H122.7L122.3 121.1H121.6L121.2 120.7H120.5L120.2 120.4H119.4L119.1 120H118.4L118 119.6H117.3L116.9 119.3H116.2L115.8 118.9H115.1L114.7 118.6H114L112.9 117.8H112.2L111.9 117.5H111.1L110.1 116.8H109.3L109 116.4H108.3L107.9 116.1H107.2L106.1 115.3H105.4L104.3 114.6H103.6L102.5 113.9H101.8L100.7 113.2H100L98.9 112.5H98.2L97.1 111.7H96.3L96 111.4H95.6L93.8 110.3H93.1L92 109.6H91.3L90.2 108.9H89.5L89.1 108.5H88.8L87 107.4H86.2L85.9 107.1H85.5L83.7 106H83L82.6 105.6H82.3L81.9 105.3H81.6L79.8 104.2H79L78.7 103.8H78.3L76.5 102.8H75.8L75.4 102.4H75.1L74.7 102H74.3L74 101.7H73.6L71.8 100.6H71.1L70.7 100.2H70.4L70 99.9H69.7L67.8 98.8H67.1L66.8 98.4H66.4L66 98.1H65.7L63.9 97H63.2L62.8 96.7H62.4L62.1 96.3H61.7L59.9 95.2H59.2L58.8 94.9H58.5L58.1 94.5H57.7L55.9 93.4H55.2L53.4 92.3H52.7L52.3 92H52L50.2 90.9H49.5L48.4 90.2H47.6L45.8 89.1H45.1L44.8 88.7H44.4L44 88.4H43.3L41.5 87.3H40.8L39.7 86.6H39L38.6 86.2H38.3L37.9 85.9H37.2L36.1 85.2H35.4L35 84.8H34.3L33.9 84.4H33.6L33.2 84.1H32.5L31.4 83.4H30.7L30.3 83H29.6L29.2 82.6H28.5L27.4 81.9H26.7L26.4 81.6H25.6L25.3 81.2H24.6L24.2 80.8H23.5L23.1 80.5H22.4L22 80.1H21.3L21 79.8H20.2L19.9 79.4H19.1L18.8 79H18.1L17.7 78.7H17L16.6 78.3H15.9L15.5 78H14.5L14.1 77.6H13.4L13 77.2H12.3L11.9 76.9H10.9L10.5 76.5H9.8L9.4 76.2H8.7L8.3 75.8H7.2L6.9 75.5H5.8L5.4 75.1H4.7L4.4 74.7H2.9L2.6 74.4H1.5L1.1 74H0L-0.3 73.7H-1.8L-2.1 73.3H-3.2L-3.6 72.9H-5L-5.4 72.6H-6.8L-7.2 72.2H-8.3L-8.6 71.9H-10.4L-10.8 71.5H-13L-13.3 71.1H-15.1L-15.5 70.8H-17.6L-18 70.4H-20.9L-21.3 70.1H-24.9L-25.2 69.7H-31.4L-31.7 69.3H-39.7L-40 69.7H-44.3L-44.7 70.1H-48L-48.3 70.4H-50.8L-51.2 70.8H-52.6L-53 71.1H-54.8L-55.2 71.5H-57L-57.3 71.9H-58.4L-58.8 72.2H-60.2L-60.6 72.6H-61.7L-62 72.9H-63.5L-63.8 73.3H-64.5L-64.9 73.7H-65.6L-66 74H-67.1L-67.4 74.4H-68.2L-68.5 74.7H-69.2L-69.6 75.1H-70.3L-70.7 75.5H-71.4L-71.8 75.8H-72.5L-73.6 76.5H-74.3L-75.4 77.2H-76.1L-77.2 78H-77.9L-78.3 78.3H-78.6L-80.4 79.4H-81.1L-81.5 79.8H-81.9L-82.2 80.1H-82.6L-82.9 80.5H-83.3L-83.7 80.8H-84L-84.4 81.2H-84.7L-85.1 81.6L-86.2 81.9L-86.9 82.6L-88 83L-88.7 83.7H-89.1L-89.4 84.1L-90.5 84.4L-91.2 85.2H-91.6L-92.3 85.9H-92.7L-93.8 86.9H-94.1L-94.8 87.7H-95.2L-95.9 88.4H-96.3L-97.7 89.8H-98.1L-99.5 91.3H-99.9L-110 101.3V101.7L-108.9 102.8L-107.8 101.7V101.3L-106.8 100.2V99.9L-105 98.1V97.7L-101 93.8H-100.6L-98.1 91.3H-97.7L-96.7 90.2H-96.3L-93.8 88H-93.4L-92.7 87.3H-92.3L-91.6 86.6H-91.2L-89.4 85.2H-89.1L-88.7 84.8L-87.6 84.4L-86.9 83.7H-86.6L-86.2 83.4H-85.8L-85.5 83H-85.1L-84.7 82.6H-84.4L-84 82.3H-83.7L-83.3 81.9H-82.9L-82.6 81.6H-82.2L-81.9 81.2H-81.5L-81.1 80.8H-80.8L-80.4 80.5H-80.1L-78.3 79.4H-77.5L-76.5 78.7H-75.7L-75.4 78.3H-75L-73.9 77.6H-73.2L-72.1 76.9H-71.4L-71 76.5H-70.3L-70 76.2H-69.2L-68.9 75.8H-68.2L-67.8 75.5H-67.1L-66.7 75.1H-66L-65.6 74.7H-64.9L-64.5 74.4H-63.5L-63.1 74H-61.7L-61.3 73.7H-60.2L-59.9 73.3H-58.8L-58.4 72.9H-57L-56.6 72.6H-54.8L-54.4 72.2H-52.3L-51.9 71.9H-49.8L-49.4 71.5H-47.6L-47.2 71.1H-44L-43.6 70.8H-35.7L-35.3 70.4L-35 70.8H-26.3L-25.9 71.1H-22L-21.6 71.5H-19.5L-19.1 71.9H-16.2L-15.8 72.2H-13.7L-13.3 72.6H-11.9L-11.5 72.9H-9.7L-9.4 73.3H-7.5L-7.2 73.7H-5.7L-5.4 74H-3.9L-3.6 74.4H-2.5L-2.1 74.7H-0.7L-0.3 75.1H0.7L1.1 75.5H2.2L2.6 75.8H3.6L4 76.2H5.1L5.4 76.5H6.2L6.5 76.9H7.6L8 77.2H8.7L9 77.6H10.1L10.5 78H11.2L11.6 78.3H12.3L12.7 78.7H13.7L14.1 79H14.8L15.2 79.4H15.9L16.3 79.8H17L17.3 80.1H18.1L18.4 80.5H19.1L19.5 80.8H20.2L20.6 81.2H21.3L21.7 81.6H22.4L22.8 81.9H23.5L23.8 82.3H24.6L24.9 82.6H25.6L26 83H26.7L27.8 83.7H28.5L28.9 84.1H29.6L30 84.4H30.7L31.8 85.2H32.5L33.6 85.9H34.3L34.7 86.2H35.4L36.5 86.9H37.2L38.3 87.7H39L40.1 88.4H40.8L41.2 88.7H41.9L43.7 89.8H44.4L46.2 90.9H46.9L48.7 92H49.5L51.3 93.1H52L52.3 93.4H52.7L54.5 94.5H55.2L55.6 94.9H55.9L57.7 95.9H58.5L58.8 96.3H59.2L61 97.4H61.7L62.1 97.7H62.4L62.8 98.1H63.2L65 99.2H65.7L66 99.5H66.4L66.8 99.9H67.1L67.5 100.2H67.8L68.2 100.6H68.6L70.4 101.7H71.1L71.5 102H71.8L73.6 103.1H74.3L74.7 103.5H75.1L75.4 103.8H75.8L77.6 104.9H78.3L78.7 105.3H79L79.4 105.6H79.8L81.6 106.7H82.3L82.6 107.1H83L84.8 108.1H85.5L87.3 109.2H88.1L89.9 110.3H90.6L92.4 111.4H93.1L94.2 112.1H94.9L96 112.8H96.7L97.1 113.2H97.4L98.5 113.9H99.2L100.3 114.6H101L101.4 115H102.1L103.2 115.7H103.9L104.3 116.1H104.6L105 116.4H105.7L106.8 117.1H107.5L107.9 117.5H108.6L109.7 118.2H110.4L110.8 118.6H111.5L112.6 119.3H113.3L113.7 119.6H114.4L114.7 120H115.5L115.8 120.4H116.5L116.9 120.7H117.6L118 121.1H118.7L119.1 121.4H119.8L120.2 121.8H120.9L121.2 122.2H122L122.3 122.5H123L123.4 122.9H124.1L124.5 123.2H125.2L125.6 123.6H126.7L127 124H127.7L128.1 124.3H129.2L129.5 124.7H130.3L130.6 125H131.7L132.1 125.4H133.1L133.5 125.8H134.2L134.6 126.1H135.7L136 126.5H137.5L137.8 126.8H138.9L139.3 127.2H140.7L141.1 127.5H142.2L142.5 127.9H143.6L144 128.3H145.4L145.8 128.6H147.6L147.9 129H149.4L149.7 129.3H151.5L152.6 130.4V130.8H153L155.2 132.9H155.5L156.6 134H157L157.7 134.7L158.8 135.1L159.5 135.8L160.6 136.2L161.3 136.9H161.6L163.4 138H164.2L164.5 138.3H164.9L165.3 138.7H166L167.1 139.4H168.1L169.2 140.1H170.3L170.7 140.5H171.4L171.7 140.8H172.8L173.2 141.2H174.3L174.6 141.6H176.1L176.4 141.9H177.9L178.2 142.3H180L180.4 142.6H183.3L183.6 143H199.9L200.2 142.6H202.8L203.1 142.3H205.7L206 141.9H207.8L208.2 141.6H209.6L210 141.2H211.4L211.8 140.8H213.2L213.6 140.5H214.7L215 140.1H216.1L216.5 139.8H217.2L217.6 139.4H218.6L219 139H220.1L220.4 138.7H221.5L221.9 138.3H222.6L223 138H223.7L224.1 137.6H225.1L225.5 137.3H226.2L226.6 136.9H227.3L228.4 136.2H229.5L230.5 135.5H231.3L231.6 135.1H232.4L233.4 134.4H234.2L234.5 134H235.2L235.6 133.7H236L237.8 132.6H238.5L238.8 132.2H239.2L241 131.1H241.7L242.1 130.8H242.5L242.8 130.4H243.2L243.5 130.1H243.9L244.3 129.7H244.6L245 129.3H245.3L245.7 129H246.1L246.4 128.6H246.8L247.1 128.3H247.5L247.9 127.9H248.2L248.6 127.5H248.9L249.3 127.2H249.7L250 126.8H250.4L250.7 126.5H251.1L251.5 126.1L252.6 125.8L253.3 125H253.6L254 124.7H254.4L254.7 124.3L255.8 124L256.5 123.2H256.9L257.2 122.9L258.3 122.5L259 121.8H259.4L259.8 121.4L260.9 121.1L261.6 120.4L262.7 120L263.4 119.3H263.7L264.1 118.9H264.5L265.2 118.2L266.3 117.8L268.1 116.4L269.1 116.1L269.9 115.3H270.2L271 114.6L272 114.3L272.8 113.5H273.1L273.8 112.8H274.2L276 111.4L277.1 111L278.9 109.6L280 109.2L281.8 107.8L282.9 107.4L283.6 106.7H283.9L285.7 105.3L286.8 104.9L287.5 104.2L288.6 103.8L289.3 103.1L290.4 102.8L291.2 102H291.5L291.9 101.7H292.2L294 100.6H294.4L295.1 99.9H295.5L295.8 99.5H296.6L296.9 99.9L296.6 100.2L296.9 100.6L297.3 100.2L303.8 106.7H304.1L305.6 108.1H305.9L307 109.2H307.4L308.1 109.9H308.5L309.2 110.7H309.6L310.3 111.4H310.6L312.4 112.8L313.5 113.2L314.2 113.9H314.6L315 114.3H315.3L315.7 114.6L316.8 115L317.5 115.7H317.8L318.2 116.1H318.6L320.4 117.1H321.1L321.5 117.5H321.8L323.6 118.6H324.3L326.1 119.6H326.9L327.2 120H327.9L329 120.7H329.8L330.1 121.1H330.8L331.2 121.4H331.9L332.3 121.8H333L333.4 122.2H334.1L334.4 122.5H335.2L335.5 122.9H336.2L336.6 123.2H337.7L338.1 123.6H338.8L339.1 124H340.2L340.6 124.3H341.7L342 124.7H343.5L343.8 125H344.9L345.3 125.4H346.7L347.1 125.8H348.5L348.9 126.1H350.7L351 126.5H353.6L353.9 126.8H355.7L356.1 127.2H359.7L360.1 127.5H364L364.4 127.9L364.7 127.5H365.1L365.5 127.9H376.3L376.6 127.5H381L381.3 127.2H384.9L385.3 126.8H387.1L387.5 126.5H389.3L389.6 126.1H391.4L391.8 125.8H393.6L394 125.4H395L395.4 125H396.5L396.9 124.7H398.3L398.7 124.3H399.7L400.1 124H400.8L401.2 123.6H402.3L402.6 123.2H403.3L403.7 122.9H404.4L404.8 122.5H405.5L405.9 122.2H406.6L407 121.8H407.7L408 121.4H408.8L409.8 120.7H410.6L411.6 120H412.4L412.7 119.6H413.1L413.4 119.3H413.8L415.6 118.2H416.3L416.7 117.8H417.1L417.4 117.5L418.5 117.1L419.2 116.4H419.6L419.9 116.1H420.3L420.7 115.7L421.7 115.3L422.5 114.6L423.5 114.3L424.3 113.5H424.6L425.4 112.8H425.7L426.8 111.7H427.2L428.2 110.7H428.6L430.8 108.5H431.1L434.4 105.3V104.9L435.8 103.5V103.1L436.9 102V101.7L438.3 99.9L438.7 98.8L439.4 98.1V97.7L440.1 96.7V95.9L440.9 94.9V94.1L441.2 93.8V93.1L441.6 92.7V92L441.9 91.6V90.5L442.3 90.2V88.4L442.7 88V85.5L443 85.2H448.4L448.8 84.8H454.2L454.6 84.4H457.8L458.2 84.1H460.7L461.1 83.7H462.9L463.2 83.4H465L465.4 83H466.8L467.2 82.6H468.6L469 82.3H470.1L470.4 81.9H471.5L471.9 81.6H473L473.3 81.2H474.1L474.4 80.8H475.5L475.9 80.5H476.6L476.9 80.1H477.7L478 79.8H479.1L479.5 79.4H480.2L480.5 79H481.3L481.6 78.7H482.3L482.7 78.3H483.4L483.8 78H484.5L484.9 77.6H485.2L485.6 77.2H486.3L488.1 76.2H488.8L489.2 75.8H489.6L491.4 74.7H492.1L492.4 74.4H492.8L493.2 74H493.5L493.9 73.7H494.3L494.6 73.3H495L495.3 72.9L496.4 72.6L497.1 71.9H497.5L497.9 71.5L498.9 71.1L499.7 70.4L500.7 70.1L501.5 69.3H501.8L502.6 68.6H502.9L503.6 67.9H504L504.7 67.2H505.1L506.2 66.1H506.5L508 64.7H508.3L510.5 62.5H510.8L515.5 57.8V57.5L517.3 55.7V55.3L519.5 52.8V52.5L520.2 51.7L520.6 50.7L521.3 49.9V49.6L521.7 49.2V48.9L522 48.5V48.1L522.4 47.8V47.4L523.5 45.6V44.9L524.2 43.8V43.1L524.6 42.8V42L524.9 41.7V40.6L525.3 40.2V39.2L525.6 38.8V37L526 36.6V28.7ZM153 130.4L153.3 130.1L153.7 130.4L153.3 130.8L153 130.4ZM152.6 130.1L153 129.7L153.3 130.1L153 130.4L152.6 130.1ZM151.9 129.3L152.3 129H153L153.3 129.3L152.6 130.1L151.9 129.3ZM245 128.6L245.3 128.3L245.7 128.6L245.3 129L245 128.6ZM245.7 128.3L246.1 127.9L246.4 128.3L246.1 128.6L245.7 128.3ZM150.8 128.3L151.2 127.9L152.3 129L151.9 129.3H151.5L150.8 128.6V128.3ZM256.5 122.5L256.9 122.2L257.2 122.5L256.9 122.9L256.5 122.5ZM257.2 122.2L257.6 121.8L258 122.2L257.6 122.5L257.2 122.2ZM258 121.8L258.3 121.4L258.7 121.8L258.3 122.2L258 121.8ZM259 121.1L259.4 120.7L259.8 121.1L259.4 121.4L259 121.1ZM260.9 120L261.2 119.6L261.6 120L261.2 120.4L260.9 120ZM261.6 119.6L261.9 119.3L262.3 119.6L261.9 120L261.6 119.6ZM264.5 117.8L264.8 117.5L265.2 117.8L264.8 118.2L264.5 117.8ZM265.2 117.5L265.5 117.1L265.9 117.5L265.5 117.8L265.2 117.5ZM266.3 116.8L266.6 116.4L267 116.8L266.6 117.1L266.3 116.8ZM267.3 116.1L267.7 115.7L268.1 116.1L267.7 116.4L267.3 116.1ZM268.1 115.7L268.4 115.3L268.8 115.7L268.4 116.1L268.1 115.7ZM270.2 114.3L270.6 113.9L271 114.3L270.6 114.6L270.2 114.3ZM302.3 103.5L302.7 103.1L303.1 103.5L302.7 103.8L302.3 103.5ZM302 103.1L302.3 102.8L302.7 103.1L302.3 103.5L302 103.1ZM296.6 100.2L296.9 99.9L297.3 100.2L296.9 100.6L296.6 100.2ZM296.2 98.4L296.6 98.1H296.9L297.3 98.4V98.8L296.9 99.2L296.2 98.4ZM296.9 98.1L297.3 97.7H297.6L298 98.1L297.6 98.4H297.3L296.9 98.1ZM297.6 97.7L298 97.4L298.4 97.7L298 98.1L297.6 97.7ZM298.4 97.4L298.7 97L299.1 97.4L298.7 97.7L298.4 97.4ZM295.5 97.4L295.8 97L296.2 97.4L295.8 97.7L295.5 97.4ZM295.1 97L295.5 96.7L295.8 97L295.5 97.4L295.1 97ZM293.7 94.9L294 94.5L294.4 94.9L294 95.2L293.7 94.9ZM293.3 94.1L293.7 93.8L294 94.1L293.7 94.5L293.3 94.1ZM293 93.8L293.3 93.4L293.7 93.8L293.3 94.1L293 93.8ZM292.6 93.1L293 92.7L293.3 93.1L293 93.4L292.6 93.1ZM292.2 92.3L292.6 92L293 92.3L292.6 92.7L292.2 92.3ZM159.5 92.3L159.8 92L160.2 92.3L159.8 92.7L159.5 92.3ZM291.9 91.6L292.2 91.3L292.6 91.6V92L292.2 92.3L291.9 92V91.6ZM291.5 90.9L291.9 90.5L292.2 90.9V91.3L291.9 91.6L291.5 91.3V90.9ZM291.2 89.8L291.5 89.5L291.9 89.8V90.2L291.5 90.5L291.2 90.2V89.8ZM290.8 89.1L291.2 88.7L291.5 89.1V89.5L291.2 89.8L290.8 89.5V89.1ZM290.8 87.7L291.2 88V88.7L290.8 89.1L290.4 88.7V88L290.8 87.7ZM290.4 86.6L290.8 86.9V87.7L290.4 88L290.1 87.7V86.9L290.4 86.6ZM290.1 85.5L290.4 85.9V86.6L290.1 86.9L289.7 86.6V85.9L290.1 85.5ZM441.6 84.1L441.9 83.7L442.3 84.1V84.4L441.9 84.8L441.6 84.4V84.1ZM297.6 98.8L298 98.4H298.4L298.7 98.1H299.1L299.4 97.7H299.8L300.2 97.4H300.5L300.9 97H301.3L301.6 96.7L302.7 96.3L303.4 95.6H303.8L305.6 94.5H306.3L306.7 94.1H307L307.4 93.8H307.7L308.1 93.4H308.5L310.3 92.3H311L312.8 91.3H313.5L313.9 90.9H314.2L315.3 90.2H316L317.1 89.5H317.8L318.2 89.1H318.9L319.3 88.7H320L320.4 88.4H321.1L322.2 87.7H322.9L323.3 87.3H324L324.3 86.9H325.1L325.4 86.6H326.1L326.5 86.2H327.6L327.9 85.9H328.7L329 85.5H329.8L330.1 85.2H331.2L331.6 84.8H332.6L333 84.4H334.1L334.4 84.1H335.5L335.9 83.7H337L337.3 83.4H338.8L339.1 83H340.6L340.9 82.6H342.4L342.7 82.3H343.8L344.2 81.9H346L346.3 81.6H348.5L348.9 81.2H351L351.4 80.8H354.3L354.6 80.5H357.9L358.3 80.1H362.9L363.3 79.8H382.8L383.1 80.1H388.2L388.6 80.5H393.2L393.6 80.8H396.5L396.9 81.2H400.5L400.8 81.6H404.1L404.4 81.9H407.3L407.7 82.3H410.2L410.6 82.6H413.1L413.4 83H416.3L416.7 83.4H418.9L419.2 83.7H422.5L422.8 84.1H426.4L426.8 84.4H430.4L430.8 84.8H435.1L435.5 85.2H440.9L441.2 85.5V88.7L440.9 89.1V90.5L440.5 90.9V92L440.1 92.3V93.1L439.8 93.4V94.1L439.4 94.5V95.2L439.1 95.6V95.9L438.7 96.3V96.7L438.3 97L438 98.1L437.3 98.8L436.9 99.9L436.2 100.6V101L435.5 101.7V102L434.4 103.1V103.5L428.6 109.2H428.2L427.2 110.3H426.8L424.3 112.5L423.2 112.8L422.5 113.5L421.4 113.9L420.7 114.6H420.3L419.9 115H419.6L419.2 115.3H418.9L418.5 115.7H418.1L417.8 116.1H417.4L417.1 116.4H416.7L416.3 116.8H416L415.6 117.1H415.2L414.9 117.5H414.5L414.2 117.8H413.8L412 118.9H411.3L410.2 119.6H409.5L408.4 120.4H407.7L406.6 121.1H405.9L405.5 121.4H404.8L404.4 121.8H403.3L403 122.2H402.3L401.9 122.5H401.2L400.8 122.9H400.1L399.7 123.2H398.7L398.3 123.6H397.2L396.9 124H395.8L395.4 124.3H394L393.6 124.7H391.8L391.4 125H390L389.6 125.4H387.8L387.5 125.8H385.3L384.9 126.1H381.7L381.3 126.5H375.9L375.6 126.8H366.5L366.2 126.5H359.7L359.3 126.1H356.1L355.7 125.8H353.9L353.6 125.4H351L350.7 125H348.9L348.5 124.7H347.1L346.7 124.3H345.3L344.9 124H343.8L343.5 123.6H342.4L342 123.2H340.9L340.6 122.9H339.5L339.1 122.5H338.1L337.7 122.2H337L336.6 121.8H335.5L335.2 121.4H334.4L334.1 121.1H333.4L333 120.7H332.3L331.9 120.4H331.2L330.8 120H330.1L329 119.3H328.3L327.9 118.9H327.6L327.2 118.6H326.5L325.4 117.8H324.7L324.3 117.5H324L322.2 116.4H321.5L320.7 115.7H320.4L318.6 114.6H317.8L317.1 113.9H316.8L316.4 113.5L315.3 113.2L314.6 112.5L313.5 112.1L311.7 110.7L310.6 110.3L309.9 109.6H309.6L308.8 108.9H308.5L307.4 107.8H307L305.6 106.4H305.2L302.7 103.8L303.1 103.5L302.3 102.8L302 103.1H301.6L300.5 102V101.7L297.6 98.8ZM247.5 93.1V93.8L247.9 94.1V95.6L248.2 95.9V97.7L247.9 98.1V99.5L247.5 99.9V100.6L247.1 101V101.7L246.8 102V102.4L246.4 102.8V103.1L246.1 103.5L245.7 104.6L245 105.3V105.6L244.3 106.4V106.7L242.1 108.9V109.2L241.4 109.9H241L238.1 112.8H237.8L236.7 113.9H236.3L235.6 114.6H235.2L234.5 115.3H234.2L232.4 116.8L231.3 117.1L230.5 117.8H230.2L229.8 118.2H229.5L229.1 118.6H228.7L228.4 118.9H228L227.7 119.3H227.3L226.9 119.6H226.6L226.2 120H225.9L225.5 120.4H225.1L223.3 121.4H222.6L220.8 122.5H220.1L219 123.2H218.3L217.9 123.6H217.2L216.1 124.3H215.4L215 124.7H214L213.6 125H212.9L212.5 125.4H211.8L211.4 125.8H210.3L210 126.1H209.3L208.9 126.5H207.8L207.5 126.8H206.4L206 127.2H204.6L204.2 127.5H203.1L202.8 127.9H201.3L201 128.3H199.2L198.8 128.6H197.4L197 129H194.5L194.1 129.3H191.6L191.2 129.7H187.6L187.3 130.1H179L178.6 130.4H173.2L172.8 130.1H166.7L166.3 129.7H162L161.6 129.3H158.4L158 129H154.8L154.4 128.6H152.6L150.8 126.8V126.5L149.4 124.7V124.3L149 124V123.6L147.9 121.8V121.1L147.6 120.7V120L147.2 119.6V118.2L146.9 117.8V111.4L147.2 111V109.9L147.6 109.6V108.9L147.9 108.5V107.8L148.7 106.7V106L149 105.6V105.3L149.4 104.9L149.7 103.8L150.5 103.1L150.8 102L151.9 101V100.6L153.3 99.2V98.8L156.6 95.6H157L159.1 93.4H159.5L160.2 92.7H160.6L161.6 91.6H162L163.8 90.2L164.9 89.8L165.6 89.1H166L166.3 88.7H166.7L167.1 88.4H167.4L167.8 88H168.1L168.5 87.7H168.9L169.2 87.3H169.6L169.9 86.9H170.3L172.1 85.9H172.8L173.2 85.5H173.5L173.9 85.2H174.6L175.7 84.4H176.4L176.8 84.1H177.5L177.9 83.7H178.6L179 83.4H179.7L180 83H180.8L181.1 82.6H182.2L182.6 82.3H183.3L183.6 81.9H184.7L185.1 81.6H186.2L186.5 81.2H187.6L188 80.8H189.1L189.4 80.5H190.9L191.2 80.1H193.4L193.8 79.8H195.6L195.9 79.4H198.4L198.8 79H203.5L203.9 78.7H215.4L215.8 79H218.3L218.6 79.4H220.8L221.2 79.8H223L223.3 80.1H225.1L225.5 80.5H226.9L227.3 80.8H228.4L228.7 81.2H229.8L230.2 81.6H230.9L231.3 81.9H232L232.4 82.3H233.1L233.4 82.6H234.2L234.5 83H235.2L236.3 83.7H237L237.4 84.1H237.8L238.1 84.4L239.2 84.8L239.9 85.5L241 85.9L241.7 86.6H242.1L243.2 87.7H243.5L245.3 89.5V89.8L246.4 90.9V91.3L247.5 93.1ZM496.4 71.5L496.8 71.1L497.1 71.5L496.8 71.9L496.4 71.5ZM346 70.4L346.3 70.1L346.7 70.4L346.3 70.8L346 70.4ZM155.5 69.7L155.9 69.3L156.2 69.7L155.9 70.1L155.5 69.7ZM357.9 69L358.3 68.6L358.6 69L358.3 69.3L357.9 69ZM358.6 68.6L359 68.3H359.3L359.7 68.6L359.3 69H359L358.6 68.6ZM359.7 68.3L360.1 67.9L360.4 68.3L360.1 68.6L359.7 68.3ZM360.4 67.9L360.8 67.5L361.1 67.9L360.8 68.3L360.4 67.9ZM361.1 67.5L361.5 67.2L361.9 67.5L361.5 67.9L361.1 67.5ZM361.9 67.2L362.2 66.8L362.6 67.2L362.2 67.5L361.9 67.2ZM362.6 66.8L362.9 66.5L363.3 66.8L362.9 67.2L362.6 66.8ZM213.6 66.5L214 66.1L214.3 66.5L214 66.8L213.6 66.5ZM363.7 66.1L364 65.8L364.4 66.1L364 66.5L363.7 66.1ZM364.4 65.8L364.7 65.4L365.1 65.8L364.7 66.1L364.4 65.8ZM172.8 65.8L173.2 65.4L173.5 65.8L173.2 66.1L172.8 65.8ZM365.1 65.4L365.5 65L365.8 65.4L365.5 65.8L365.1 65.4ZM173.5 65.4L173.9 65L174.3 65.4L173.9 65.8L173.5 65.4ZM365.5 65L365.8 64.7L366.2 65L365.8 65.4L365.5 65ZM174.3 65L174.6 64.7L175 65L174.6 65.4L174.3 65ZM366.2 64.7L366.5 64.3L366.9 64.7L366.5 65L366.2 64.7ZM174.6 64.7L175 64.3L175.4 64.7L175 65L174.6 64.7ZM366.9 64.3L367.3 64L367.6 64.3L367.3 64.7L366.9 64.3ZM175.4 64.3L175.7 64L176.1 64.3L175.7 64.7L175.4 64.3ZM367.3 64L367.6 63.6L368 64L367.6 64.3L367.3 64ZM176.1 64L176.4 63.6L176.8 64L176.4 64.3L176.1 64ZM368 63.6L368.4 63.2L368.7 63.6L368.4 64L368 63.6ZM176.4 63.6L176.8 63.2L177.2 63.6L176.8 64L176.4 63.6ZM368.4 63.2L368.7 62.9L369.1 63.2L368.7 63.6L368.4 63.2ZM177.2 63.2L177.5 62.9L177.9 63.2L177.5 63.6L177.2 63.2ZM369.1 62.9L369.4 62.5L369.8 62.9L369.4 63.2L369.1 62.9ZM177.5 62.9L177.9 62.5L178.2 62.9L177.9 63.2L177.5 62.9ZM369.4 62.5L369.8 62.2L370.2 62.5L369.8 62.9L369.4 62.5ZM178.2 62.5L178.6 62.2L179 62.5L178.6 62.9L178.2 62.5ZM178.6 62.2L179 61.8L179.3 62.2L179 62.5L178.6 62.2ZM370.5 61.8L370.9 61.4L371.2 61.8L370.9 62.2L370.5 61.8ZM179.3 61.8L179.7 61.4L180 61.8L179.7 62.2L179.3 61.8ZM402.3 61.4L401.9 61.8H401.5L401.2 62.2H400.5L400.1 62.5H399.7L399.4 62.2L400.1 61.4H400.8L401.2 61.1H401.9L402.3 61.4ZM370.9 61.4L371.2 61.1L371.6 61.4L371.2 61.8L370.9 61.4ZM179.7 61.4L180 61.1L180.4 61.4L180 61.8L179.7 61.4ZM401.9 61.1L402.3 60.7H403.3L403.7 61.1L403.3 61.4H402.3L401.9 61.1ZM371.6 61.1L372 60.7L372.3 61.1L372 61.4L371.6 61.1ZM403.3 60.7L403.7 60.4H404.8L405.1 60.7L404.8 61.1H403.7L403.3 60.7ZM372 60.7L372.3 60.4L372.7 60.7L372.3 61.1L372 60.7ZM180.8 60.7L181.1 60.4L181.5 60.7L181.1 61.1L180.8 60.7ZM405.5 60.4L405.9 60H406.2L406.6 60.4L406.2 60.7H405.9L405.5 60.4ZM372.3 60.4L372.7 60L373 60.4L372.7 60.7L372.3 60.4ZM373 60L373.4 59.6L373.8 60L373.4 60.4L373 60ZM181.8 60L182.2 59.6L182.6 60L182.2 60.4L181.8 60ZM373.4 59.6L373.8 59.3L374.1 59.6L373.8 60L373.4 59.6ZM182.2 59.6L182.6 59.3L182.9 59.6L182.6 60L182.2 59.6ZM373.8 59.3L374.1 58.9L374.5 59.3L374.1 59.6L373.8 59.3ZM182.9 59.3L183.3 58.9L183.6 59.3L183.3 59.6L182.9 59.3ZM183.3 58.9L183.6 58.6L184 58.9L183.6 59.3L183.3 58.9ZM375.2 58.2L375.6 57.8L375.9 58.2L375.6 58.6L375.2 58.2ZM184.4 58.2L184.7 57.8L185.1 58.2L184.7 58.6L184.4 58.2ZM375.6 57.8L375.9 57.5L376.3 57.8L375.9 58.2L375.6 57.8ZM184.7 57.8L185.1 57.5L185.5 57.8L185.1 58.2L184.7 57.8ZM185.1 57.5L185.5 57.1L185.8 57.5L185.5 57.8L185.1 57.5ZM185.8 57.1L186.2 56.8L186.5 57.1L186.2 57.5L185.8 57.1ZM377 56.8L377.4 56.4L377.7 56.8L377.4 57.1L377 56.8ZM186.2 56.8L186.5 56.4L186.9 56.8L186.5 57.1L186.2 56.8ZM186.5 56.4L186.9 56.1L187.3 56.4L186.9 56.8L186.5 56.4ZM187.6 55.7L188 55.3L188.3 55.7L188 56.1L187.6 55.7ZM325.1 55.3L325.4 55L325.8 55.3L325.4 55.7L325.1 55.3ZM188 55.3L188.3 55L188.7 55.3L188.3 55.7L188 55.3ZM188.3 55L188.7 54.6L189.1 55L188.7 55.3L188.3 55ZM379.5 54.6L379.9 54.3L380.3 54.6L379.9 55L379.5 54.6ZM273.5 54.6L273.8 54.3L274.2 54.6L273.8 55L273.5 54.6ZM188.7 54.6L189.1 54.3L189.4 54.6L189.1 55L188.7 54.6ZM379.9 54.3L380.3 53.9L380.6 54.3L380.3 54.6L379.9 54.3ZM326.5 54.3L326.9 53.9L327.2 54.3L326.9 54.6L326.5 54.3ZM273.8 54.3L274.2 53.9L274.6 54.3L274.2 54.6L273.8 54.3ZM189.1 54.3L189.4 53.9H189.8L190.1 54.3L189.8 54.6H189.4L189.1 54.3ZM380.3 53.9L380.6 53.5L381 53.9L380.6 54.3L380.3 53.9ZM326.9 53.9L327.2 53.5L327.6 53.9L327.2 54.3L326.9 53.9ZM189.8 53.9L190.1 53.5L190.5 53.9L190.1 54.3L189.8 53.9ZM380.6 53.5L381 53.2L381.3 53.5L381 53.9L380.6 53.5ZM276.7 53.5L277.1 53.2L277.4 53.5L277.1 53.9L276.7 53.5ZM190.1 53.5L190.5 53.2L190.9 53.5L190.5 53.9L190.1 53.5ZM382.4 53.2L382.8 52.8L383.1 53.2L382.8 53.5L382.4 53.2ZM381 53.2L381.3 52.8L381.7 53.2L381.3 53.5L381 53.2ZM277.4 53.2L277.8 52.8L278.2 53.2L277.8 53.5L277.4 53.2ZM190.5 53.2L190.9 52.8L191.2 53.2L190.9 53.5L190.5 53.2ZM382.8 52.8L383.1 52.5L383.5 52.8L383.1 53.2L382.8 52.8ZM381.3 52.8L381.7 52.5L382.1 52.8L381.7 53.2L381.3 52.8ZM328.3 52.8L328.7 52.5L329 52.8L328.7 53.2L328.3 52.8ZM277.8 52.8L278.2 52.5L278.5 52.8L278.2 53.2L277.8 52.8ZM328.7 52.5L329 52.1L329.4 52.5L329 52.8L328.7 52.5ZM278.5 52.5L278.9 52.1L279.2 52.5L278.9 52.8L278.5 52.5ZM381.7 52.1L382.1 51.7H382.4L382.8 52.1L382.4 52.5H382.1L381.7 52.1ZM278.9 52.1L279.2 51.7L279.6 52.1L279.2 52.5L278.9 52.1ZM382.4 51.7L382.8 51.4L383.1 51.7L382.8 52.1L382.4 51.7ZM193 51.7V52.1L192.7 52.5H192.3L191.2 53.2L190.5 52.1L190.9 51.7H191.2L191.6 52.1L192.7 51.4L193 51.7ZM383.1 51.4L383.5 51L383.9 51.4L383.5 51.7L383.1 51.4ZM330.1 51.4L330.5 51L330.8 51.4L330.5 51.7L330.1 51.4ZM192.7 51.4L193 51L193.4 51.4L193 51.7L192.7 51.4ZM330.5 51L330.8 50.7L331.2 51L330.8 51.4L330.5 51ZM193 51L193.4 50.7L193.8 51L193.4 51.4L193 51ZM383.5 51L384.2 50.3L384.9 51L384.6 51.4H383.9L383.5 51ZM242.1 50.3L242.5 50.7L241.4 51.7H241L240.6 51.4L241.7 50.3H242.1ZM193.4 50.7L193.8 50.3L194.1 50.7L193.8 51L193.4 50.7ZM384.2 50.3L384.6 49.9L384.9 50.3L384.6 50.7L384.2 50.3ZM242.1 50.3L242.5 49.9L242.8 50.3L242.5 50.7L242.1 50.3ZM195.6 50.3L195.9 49.9L196.3 50.3L195.9 50.7L195.6 50.3ZM193.8 50.3L194.1 49.9L194.5 50.3L194.1 50.7L193.8 50.3ZM384.6 49.9L384.9 49.6L385.3 49.9L384.9 50.3L384.6 49.9ZM331.9 49.9L332.3 49.6L332.6 49.9L332.3 50.3L331.9 49.9ZM195.9 49.9L196.3 49.6L196.6 49.9L196.3 50.3L195.9 49.9ZM194.1 49.9L194.5 49.6L194.8 49.9L194.5 50.3L194.1 49.9ZM384.9 49.6L385.3 49.2L385.7 49.6L385.3 49.9L384.9 49.6ZM242.5 49.9L243.2 49.2H243.5L243.9 49.6L243.2 50.3H242.8L242.5 49.9ZM241.4 49.6L241.7 49.2L242.1 49.6L241.7 49.9L241.4 49.6ZM196.3 49.6L196.6 49.2L197 49.6L196.6 49.9L196.3 49.6ZM194.5 49.6L194.8 49.2L195.2 49.6L194.8 49.9L194.5 49.6ZM385.3 49.2L385.7 48.9L386 49.2L385.7 49.6L385.3 49.2ZM243.5 49.2L243.9 48.9L244.3 49.2L243.9 49.6L243.5 49.2ZM241.7 49.2L242.1 48.9L242.5 49.2L242.1 49.6L241.7 49.2ZM387.1 48.9L387.5 48.5L387.8 48.9L387.5 49.2L387.1 48.9ZM385.7 48.9L386 48.5L386.4 48.9L386 49.2L385.7 48.9ZM333.4 48.9L333.7 48.5L334.1 48.9L333.7 49.2L333.4 48.9ZM242.1 48.9L242.5 48.5L242.8 48.9L242.5 49.2L242.1 48.9ZM195.6 48.9L195.9 48.5L196.3 48.9L195.9 49.2L195.6 48.9ZM386 48.5L386.4 48.1L386.8 48.5L386.4 48.9L386 48.5ZM333.7 48.5L334.1 48.1L334.4 48.5L334.1 48.9L333.7 48.5ZM243.9 48.9L244.6 48.1H245L245.3 48.5L244.6 49.2H244.3L243.9 48.9ZM195.9 48.5L196.3 48.1L196.6 48.5L196.3 48.9L195.9 48.5ZM386.4 48.1L386.8 47.8L387.1 48.1L386.8 48.5L386.4 48.1ZM334.1 48.1L334.4 47.8H334.8L335.2 48.1L334.8 48.5H334.4L334.1 48.1ZM245 48.1L245.3 47.8L245.7 48.1L245.3 48.5L245 48.1ZM196.3 48.1L196.6 47.8L197 48.1L196.6 48.5L196.3 48.1ZM138.2 48.1L138.6 47.8L138.9 48.1L138.6 48.5L138.2 48.1ZM386.8 47.8L387.1 47.4L387.5 47.8L387.1 48.1L386.8 47.8ZM334.8 47.8L335.2 47.4L335.5 47.8L335.2 48.1L334.8 47.8ZM196.6 47.8L197 47.4L197.4 47.8L197 48.1L196.6 47.8ZM387.1 47.4L387.5 47.1L387.8 47.4L387.5 47.8L387.1 47.4ZM335.2 47.4L335.5 47.1L335.9 47.4L335.5 47.8L335.2 47.4ZM245.3 47.8L246.1 47.1H246.4L246.8 47.4L246.1 48.1H245.7L245.3 47.8ZM197 47.4L197.4 47.1L197.7 47.4L197.4 47.8L197 47.4ZM139.3 47.4L139.6 47.1L140 47.4L139.6 47.8L139.3 47.4ZM392.5 47.1L392.9 46.7L393.2 47.1L392.9 47.4L392.5 47.1ZM387.5 47.1L387.8 46.7L388.2 47.1L387.8 47.4L387.5 47.1ZM370.2 47.1L370.5 46.7L370.9 47.1L370.5 47.4L370.2 47.1ZM335.5 47.1L335.9 46.7L336.2 47.1L335.9 47.4L335.5 47.1ZM286.8 47.1L287.2 46.7L287.5 47.1L287.2 47.4L286.8 47.1ZM246.4 47.1L246.8 46.7L247.1 47.1L246.8 47.4L246.4 47.1ZM197.4 47.1L197.7 46.7L198.1 47.1L197.7 47.4L197.4 47.1ZM139.6 47.1L140 46.7L140.4 47.1L140 47.4L139.6 47.1ZM392.9 46.7L393.2 46.3L393.6 46.7L393.2 47.1L392.9 46.7ZM387.8 46.7L388.2 46.3L388.6 46.7L388.2 47.1L387.8 46.7ZM336.2 46.7L336.6 46.3L337 46.7L336.6 47.1L336.2 46.7ZM246.8 46.7L247.1 46.3H247.5L247.9 46.7L247.5 47.1H247.1L246.8 46.7ZM197.7 46.7L198.1 46.3L198.4 46.7L198.1 47.1L197.7 46.7ZM388.2 46.3L388.6 46L388.9 46.3L388.6 46.7L388.2 46.3ZM336.6 46.3L337 46L337.3 46.3L337 46.7L336.6 46.3ZM247.5 46.3L247.9 46L248.2 46.3L247.9 46.7L247.5 46.3ZM198.1 46.3L198.4 46L198.8 46.3L198.4 46.7L198.1 46.3ZM140.7 46.3L141.1 46L141.4 46.3L141.1 46.7L140.7 46.3ZM337 46L337.3 45.6L337.7 46L337.3 46.3L337 46ZM247.9 46L248.2 45.6L248.6 46L248.2 46.3L247.9 46ZM198.4 46L198.8 45.6L199.2 46L198.8 46.3L198.4 46ZM141.1 46L141.4 45.6L141.8 46L141.4 46.3L141.1 46ZM337.7 45.6L338.1 45.3L338.4 45.6L338.1 46L337.7 45.6ZM248.2 45.6L248.6 45.3H248.9L249.3 45.6L248.9 46H248.6L248.2 45.6ZM198.8 45.6L199.2 45.3L199.5 45.6L199.2 46L198.8 45.6ZM141.4 45.6L141.8 45.3L142.2 45.6L141.8 46L141.4 45.6ZM338.1 45.3L338.4 44.9L338.8 45.3L338.4 45.6L338.1 45.3ZM248.9 45.3L249.3 44.9L249.7 45.3L249.3 45.6L248.9 45.3ZM199.2 45.3L199.5 44.9L199.9 45.3L199.5 45.6L199.2 45.3ZM181.8 45.3L182.2 44.9L182.6 45.3V45.6L182.2 46L181.8 45.6V45.3ZM338.4 44.9L338.8 44.6L339.1 44.9L338.8 45.3L338.4 44.9ZM249.3 44.9L249.7 44.6L250 44.9L249.7 45.3L249.3 44.9ZM199.5 44.9L199.9 44.6L200.2 44.9L199.9 45.3L199.5 44.9ZM142.5 44.9L142.9 44.6L143.2 44.9L142.9 45.3L142.5 44.9ZM339.1 44.6L339.5 44.2L339.9 44.6L339.5 44.9L339.1 44.6ZM249.7 44.6L250 44.2H250.4L250.7 44.6L250.4 44.9H250L249.7 44.6ZM390 44.2L390.4 43.8L390.7 44.2L390.4 44.6L390 44.2ZM339.5 44.2L339.9 43.8L340.2 44.2L339.9 44.6L339.5 44.2ZM250.4 44.2L250.7 43.8L251.1 44.2L250.7 44.6L250.4 44.2ZM390.4 43.8L390.7 43.5L391.1 43.8L390.7 44.2L390.4 43.8ZM339.9 43.8L340.2 43.5L340.6 43.8L340.2 44.2L339.9 43.8ZM292.2 43.8L292.6 43.5L293 43.8L292.6 44.2L292.2 43.8ZM250.7 43.8L251.1 43.5H251.5L251.8 43.8L251.5 44.2H251.1L250.7 43.8ZM340.6 43.5L340.9 43.1L341.3 43.5L340.9 43.8L340.6 43.5ZM293 43.5L293.3 43.1L293.7 43.5L293.3 43.8L293 43.5ZM251.5 43.5L251.8 43.1L252.2 43.5L251.8 43.8L251.5 43.5ZM144.3 43.5L144.7 43.1L145 43.5L144.7 43.8L144.3 43.5ZM340.9 43.1L341.3 42.8L341.7 43.1L341.3 43.5L340.9 43.1ZM251.8 43.1L252.2 42.8L252.6 43.1L252.2 43.5L251.8 43.1ZM391.1 42.8L391.4 42.4L391.8 42.8L391.4 43.1L391.1 42.8ZM341.3 42.8L341.7 42.4L342 42.8L341.7 43.1L341.3 42.8ZM294 42.8L294.4 42.4L294.8 42.8L294.4 43.1L294 42.8ZM252.6 42.8L252.9 42.4L253.3 42.8L252.9 43.1L252.6 42.8ZM145.4 42.8L145.8 42.4L146.1 42.8L145.8 43.1L145.4 42.8ZM391.4 42.4L391.8 42L392.2 42.4L391.8 42.8L391.4 42.4ZM342 42.4L342.4 42L342.7 42.4L342.4 42.8L342 42.4ZM294.8 42.4L295.1 42L295.5 42.4L295.1 42.8L294.8 42.4ZM252.9 42.4L253.3 42L253.6 42.4L253.3 42.8L252.9 42.4ZM201.7 42.4L202 42L202.4 42.4L202 42.8L201.7 42.4ZM145.8 42.4L146.1 42L146.5 42.4L146.1 42.8L145.8 42.4ZM391.8 42L392.2 41.7L392.5 42L392.2 42.4L391.8 42ZM342.4 42L342.7 41.7L343.1 42L342.7 42.4L342.4 42ZM253.3 42L253.6 41.7H254L254.4 42L254 42.4H253.6L253.3 42ZM202 42L202.4 41.7L202.8 42L202.4 42.4L202 42ZM146.1 42L146.5 41.7L146.9 42L146.5 42.4L146.1 42ZM342.7 41.7L343.1 41.3L343.5 41.7L343.1 42L342.7 41.7ZM254 41.7L254.4 41.3L254.7 41.7L254.4 42L254 41.7ZM202.4 41.7L202.8 41.3L203.1 41.7L202.8 42L202.4 41.7ZM343.5 41.3L343.8 41L344.2 41.3L343.8 41.7L343.5 41.3ZM254.4 41.3L254.7 41L255.1 41.3L254.7 41.7L254.4 41.3ZM202.8 41.3L203.1 41L203.5 41.3L203.1 41.7L202.8 41.3ZM147.2 41.3L147.6 41L147.9 41.3L147.6 41.7L147.2 41.3ZM343.8 41L344.2 40.6L344.5 41L344.2 41.3L343.8 41ZM255.1 41L255.4 40.6L255.8 41L255.4 41.3L255.1 41ZM203.1 41L203.5 40.6L203.9 41L203.5 41.3L203.1 41ZM147.6 41L147.9 40.6L148.3 41L147.9 41.3L147.6 41ZM392.9 40.6L393.2 40.2L393.6 40.6L393.2 41L392.9 40.6ZM344.5 40.6L344.9 40.2L345.3 40.6L344.9 41L344.5 40.6ZM255.4 40.6L255.8 40.2L256.2 40.6L255.8 41L255.4 40.6ZM203.5 40.6L203.9 40.2L204.2 40.6L203.9 41L203.5 40.6ZM148.3 40.6L148.7 40.2L149 40.6L148.7 41L148.3 40.6ZM393.2 40.2L393.6 39.9L394 40.2L393.6 40.6L393.2 40.2ZM344.9 40.2L345.3 39.9L345.6 40.2L345.3 40.6L344.9 40.2ZM255.8 40.2L256.2 39.9H256.5L256.9 40.2L256.5 40.6H256.2L255.8 40.2ZM148.7 40.2L149 39.9L149.4 40.2L149 40.6L148.7 40.2ZM370.5 39.5L370.9 39.9V41.3L370.5 41.7V45.3L370.2 45.6L369.8 45.3V41.3L370.2 41V39.9L370.5 39.5ZM256.5 39.9L256.9 39.5L257.2 39.9L256.9 40.2L256.5 39.9ZM149 39.9L149.4 39.5L149.7 39.9L149.4 40.2L149 39.9ZM398.3 39.5L398.7 39.2L399 39.5L398.7 39.9L398.3 39.5ZM346 39.5L346.3 39.2L346.7 39.5L346.3 39.9L346 39.5ZM256.9 39.5L257.2 39.2H257.6L258 39.5L257.6 39.9H257.2L256.9 39.5ZM204.2 39.5L204.6 39.2L204.9 39.5L204.6 39.9L204.2 39.5ZM149.7 39.5L150.1 39.2L150.5 39.5L150.1 39.9L149.7 39.5ZM398.7 39.2L399 38.8L399.4 39.2L399 39.5L398.7 39.2ZM394 39.2L394.3 38.8L394.7 39.2L394.3 39.5L394 39.2ZM346.3 39.2L346.7 38.8L347.1 39.2L346.7 39.5L346.3 39.2ZM257.6 39.2L258 38.8L258.3 39.2L258 39.5L257.6 39.2ZM204.6 39.2L204.9 38.8L205.3 39.2L204.9 39.5L204.6 39.2ZM150.1 39.2L150.5 38.8L150.8 39.2L150.5 39.5L150.1 39.2ZM399 38.8L399.4 38.4L399.7 38.8L399.4 39.2L399 38.8ZM394.3 38.8L394.7 38.4L395 38.8L394.7 39.2L394.3 38.8ZM370.9 38.4L371.2 38.8V39.5L370.9 39.9L370.5 39.5V38.8L370.9 38.4ZM347.1 38.8L347.4 38.4L347.8 38.8L347.4 39.2L347.1 38.8ZM258.3 38.8L258.7 38.4L259 38.8L258.7 39.2L258.3 38.8ZM204.9 38.8L205.3 38.4L205.7 38.8L205.3 39.2L204.9 38.8ZM150.5 38.8L150.8 38.4L151.2 38.8L150.8 39.2L150.5 38.8ZM399.4 38.4L399.7 38.1L400.1 38.4L399.7 38.8L399.4 38.4ZM347.4 38.4L347.8 38.1L348.2 38.4L347.8 38.8L347.4 38.4ZM258.7 38.4L259 38.1L259.4 38.4L259 38.8L258.7 38.4ZM205.3 38.4L205.7 38.1L206 38.4L205.7 38.8L205.3 38.4ZM151.2 38.4L151.5 38.1L151.9 38.4L151.5 38.8L151.2 38.4ZM399.7 38.1L400.1 37.7L400.5 38.1L400.1 38.4L399.7 38.1ZM394.7 38.1L395 37.7L395.4 38.1L395 38.4L394.7 38.1ZM347.8 38.1L348.2 37.7H348.5L348.9 38.1L348.5 38.4H348.2L347.8 38.1ZM259.4 38.1L259.8 37.7L260.1 38.1L259.8 38.4L259.4 38.1ZM151.5 38.1L151.9 37.7L152.3 38.1L151.9 38.4L151.5 38.1ZM400.1 37.7L400.5 37.4L400.8 37.7L400.5 38.1L400.1 37.7ZM395 37.7L395.4 37.4L395.8 37.7L395.4 38.1L395 37.7ZM370.9 37.7L371.2 37.4L371.6 37.7V38.1L371.2 38.4L370.9 38.1V37.7ZM348.5 37.7L348.9 37.4L349.2 37.7L348.9 38.1L348.5 37.7ZM259.8 37.7L260.1 37.4L260.5 37.7L260.1 38.1L259.8 37.7ZM151.9 37.7L152.3 37.4L152.6 37.7L152.3 38.1L151.9 37.7ZM400.5 37.4L400.8 37L401.2 37.4L400.8 37.7L400.5 37.4ZM350.7 37.4L351 37L351.4 37.4L351 37.7L350.7 37.4ZM348.9 37.4L349.2 37H349.6L350 37.4L349.6 37.7H349.2L348.9 37.4ZM206 37.4L206.4 37L206.7 37.4L206.4 37.7L206 37.4ZM152.6 37.4L153 37L153.3 37.4L153 37.7L152.6 37.4ZM400.8 37L401.2 36.6L401.5 37L401.2 37.4L400.8 37ZM349.6 37L350 36.6L350.3 37L350 37.4L349.6 37ZM206.4 37L206.7 36.6L207.1 37L206.7 37.4L206.4 37ZM153 37L153.3 36.6L153.7 37L153.3 37.4L153 37ZM401.2 36.6L401.5 36.3L401.9 36.6L401.5 37L401.2 36.6ZM395.8 36.6L396.1 36.3L396.5 36.6L396.1 37L395.8 36.6ZM371.2 36.6L371.6 36.3L372 36.6V37L371.6 37.4L371.2 37V36.6ZM350 36.6L350.3 36.3L350.7 36.6L350.3 37L350 36.6ZM261.6 36.6L261.9 36.3L262.3 36.6L261.9 37L261.6 36.6ZM206.7 36.6L207.1 36.3L207.5 36.6L207.1 37L206.7 36.6ZM350.7 36.3L351 35.9L351.4 36.3L351 36.6L350.7 36.3ZM261.9 36.3L262.3 35.9L262.7 36.3L262.3 36.6L261.9 36.3ZM154.1 36.3L154.4 35.9L154.8 36.3L154.4 36.6L154.1 36.3ZM371.6 35.9L372 35.6L372.3 35.9V36.3L372 36.6L371.6 36.3V35.9ZM262.7 35.9L263 35.6L263.4 35.9L263 36.3L262.7 35.9ZM154.4 35.9L154.8 35.6L155.2 35.9L154.8 36.3L154.4 35.9ZM396.5 35.6L396.9 35.2L397.2 35.6L396.9 35.9L396.5 35.6ZM351 35.9L351.8 35.2H352.1L352.5 35.6L351.8 36.3H351.4L351 35.9ZM207.5 35.6L207.8 35.2L208.2 35.6L207.8 35.9L207.5 35.6ZM372 35.2L372.3 34.9L372.7 35.2V35.6L372.3 35.9L372 35.6V35.2ZM263.7 35.2L264.1 34.9L264.5 35.2L264.1 35.6L263.7 35.2ZM155.5 35.2L155.9 34.9L156.2 35.2L155.9 35.6L155.5 35.2ZM352.1 35.2L352.8 34.5H353.2L353.6 34.9L352.8 35.6H352.5L352.1 35.2ZM264.1 34.9L264.5 34.5L264.8 34.9L264.5 35.2L264.1 34.9ZM372.3 34.5L372.7 34.1L373 34.5L372.7 34.9L372.3 34.5ZM318.6 34.1L320 35.6V38.4L319.7 38.8V39.2L319.3 39.5V39.9L318.9 40.2L318.6 41.3L317.8 42V42.4L311 49.2H310.6L309.9 50.3H309.6L306.3 53.5H305.9L302.3 57.1H302L299.8 59.3V59.6L296.9 62.5V62.9L295.8 64V64.3L295.1 65V65.4L293.7 67.2L293.3 68.3L292.6 69V69.3L292.2 69.7V70.1L291.2 71.9V72.6L290.8 72.9V73.7L290.4 74V74.7L290.1 75.1V76.2L289.7 76.5V83.7L290.1 84.1V85.5L289.7 85.9L289.3 85.5V84.4L289 84.1V82.3L288.6 81.9V72.6L289 72.2V70.4L289.3 70.1V69.3L289.7 69V68.3L290.1 67.9V67.2L290.4 66.8V66.1L290.8 65.8V65.4L291.2 65V64.7L291.5 64.3V64L291.9 63.6L292.2 62.5L293 61.8V61.4L293.3 61.1L293.7 60L294.4 59.3V58.9L295.5 57.8V57.5L296.9 56.1V55.7L298 54.6V54.3L299.4 52.8V52.5L302.3 49.6V49.2L303.4 48.1H303.8L307 44.9H307.4L308.8 43.5H309.2L311 41.7H311.4L312.8 40.2H313.2L315.3 38.1H315.7L317.1 36.6V36.3L317.8 35.6V34.5L318.2 34.1H318.6ZM264.8 34.5L265.2 34.1L265.5 34.5L265.2 34.9L264.8 34.5ZM156.6 34.5L157 34.1L157.3 34.5L157 34.9L156.6 34.5ZM265.5 34.1L265.9 33.8L266.3 34.1L265.9 34.5L265.5 34.1ZM208.5 34.1L208.9 33.8L209.3 34.1L208.9 34.5L208.5 34.1ZM157 34.1L157.3 33.8L157.7 34.1L157.3 34.5L157 34.1ZM372.7 33.8L373 33.4L373.4 33.8V34.1L373 34.5L372.7 34.1V33.8ZM265.9 33.8L266.3 33.4L266.6 33.8L266.3 34.1L265.9 33.8ZM373 33.4L373.4 33.1L373.8 33.4L373.4 33.8L373 33.4ZM266.6 33.4L267 33.1L267.3 33.4L267 33.8L266.6 33.4ZM208.9 33.4L209.3 33.1L209.6 33.4L209.3 33.8L208.9 33.4ZM158 33.4L158.4 33.1L158.8 33.4L158.4 33.8L158 33.4ZM184.7 33.1L185.1 32.7L185.5 33.1L185.1 33.4L184.7 33.1ZM158.4 33.1L158.8 32.7L159.1 33.1L158.8 33.4L158.4 33.1ZM373.4 32.7L373.8 32.3L374.1 32.7L373.8 33.1L373.4 32.7ZM267.7 32.7L268.1 32.3L268.4 32.7L268.1 33.1L267.7 32.7ZM159.1 32.7L159.5 32.3L159.8 32.7L159.5 33.1L159.1 32.7ZM209.6 32.3L210 32L210.3 32.3L210 32.7L209.6 32.3ZM185.1 32.3L185.5 32L185.8 32.3L185.5 32.7L185.1 32.3ZM159.5 32.3L159.8 32L160.2 32.3L159.8 32.7L159.5 32.3ZM373.8 32L374.1 31.6L374.5 32V32.3L374.1 32.7L373.8 32.3V32ZM185.5 32L185.8 31.6L186.2 32L185.8 32.3L185.5 32ZM160.2 32L160.6 31.6L160.9 32L160.6 32.3L160.2 32ZM374.1 31.6L374.5 31.3L374.8 31.6L374.5 32L374.1 31.6ZM160.6 31.6L160.9 31.3L161.3 31.6L160.9 32L160.6 31.6ZM374.5 31.3L374.8 30.9L375.2 31.3L374.8 31.6L374.5 31.3ZM185.8 31.3L186.2 30.9L186.5 31.3L186.2 31.6L185.8 31.3ZM186.2 30.9L186.5 30.5L186.9 30.9L186.5 31.3L186.2 30.9ZM161.6 30.9L162 30.5L162.4 30.9L162 31.3L161.6 30.9ZM374.8 30.5L375.2 30.2L375.6 30.5L375.2 30.9L374.8 30.5ZM375.2 30.2L375.6 29.8L375.9 30.2L375.6 30.5L375.2 30.2ZM408.4 29.5L408.8 29.1L409.1 29.5L408.8 29.8L408.4 29.5ZM408.8 29.1L409.1 28.7L409.5 29.1L409.1 29.5L408.8 29.1ZM375.9 29.1L376.3 28.7L376.6 29.1L376.3 29.5L375.9 29.1ZM409.1 28.7L409.5 28.4L409.8 28.7L409.5 29.1L409.1 28.7ZM376.3 28.7L376.6 28.4L377 28.7L376.6 29.1L376.3 28.7ZM409.5 28.4L409.8 28L410.2 28.4L409.8 28.7L409.5 28.4ZM376.6 28.4L377 28L377.4 28.4L377 28.7L376.6 28.4ZM409.8 28L410.2 27.7L410.6 28L410.2 28.4L409.8 28ZM377 28L377.4 27.7L377.7 28L377.4 28.4L377 28ZM410.2 27.7L410.6 27.3L410.9 27.7L410.6 28L410.2 27.7ZM377.4 27.3L377.7 26.9L378.1 27.3L377.7 27.7L377.4 27.3ZM167.4 27.3L167.8 26.9L168.1 27.3L167.8 27.7L167.4 27.3ZM377.7 26.9L378.1 26.6L378.5 26.9L378.1 27.3L377.7 26.9ZM378.1 26.6L378.5 26.2L378.8 26.6L378.5 26.9L378.1 26.6ZM255.1 26.2L255.4 25.9L255.8 26.2L255.4 26.6L255.1 26.2ZM255.4 25.9L255.8 25.5L256.2 25.9L255.8 26.2L255.4 25.9ZM250.7 25.2L251.1 24.8H251.5L251.8 25.2L251.5 25.5H251.1L250.7 25.2ZM191.2 25.2L191.6 24.8L191.9 25.2L191.6 25.5L191.2 25.2ZM290.1 24.4L291.5 25.9V26.6L291.9 26.9V28.7L291.5 29.1V30.2L291.2 30.5V31.3L290.8 31.6V32L290.4 32.3L290.1 33.4L289.3 34.1L289 35.2L288.3 35.9V36.3L287.5 37V37.4L286.5 38.4V38.8L285.4 39.9V40.2L283.6 42V42.4L281.4 44.6V44.9L279.2 47.1V47.4L276 50.7V51L273.8 53.2V53.5L272 55.3V56.4L271 57.5V57.8L269.1 59.6H268.8L265.9 62.5V62.9L265.5 63.2H264.8L264.5 62.9H262.7L262.3 62.5H261.2L260.9 62.9H259.4L259 63.2H258.3L258 62.9L259 61.8V61.4L270.2 50.3V49.9L282.5 37.7V37.4L285.4 34.5V34.1L287.2 32.3V32L287.9 31.3L288.3 30.2L289 29.5V29.1L289.7 28V26.9L290.1 26.6V25.5L289.7 25.2V24.8L290.1 24.4ZM414.2 24.4L414.5 24.1L414.9 24.4L414.5 24.8L414.2 24.4ZM381.7 24.4L382.1 24.1L382.4 24.4L382.1 24.8L381.7 24.4ZM414.5 24.1L414.9 23.7L415.2 24.1L414.9 24.4L414.5 24.1ZM190.9 23.4L191.6 24.1L187.6 28V28.4L186.2 29.8V30.2L185.5 30.9V31.3L184 33.1V33.4L183.6 33.8V34.1L182.6 35.9V36.6L181.8 37.7V38.8L181.5 39.2V40.2L181.1 40.6V44.9L181.5 45.3V46.3L181.8 46.7L182.2 47.8L183.3 48.9V49.2L183.6 49.6H184L185.1 50.7H185.5L186.2 51.4H186.5L186.9 51.7H187.6L188 52.1H188.7L189.1 52.5H189.8L190.1 52.8L188.7 54.3H188.3L186.9 55.7H186.5L185.5 56.8H185.1L183.6 58.2H183.3L180.8 60.4H180.4L179.7 61.1H179.3L178.6 61.8H178.2L177.5 62.5H177.2L175.4 64L174.3 64.3L173.5 65H173.2L172.8 65.4H172.5L172.1 65.8H171.7L171.4 66.1H171L170.7 66.5H170.3L169.9 66.8H169.6L169.2 67.2H168.9L167.1 68.3H166.3L166 68.6H165.3L164.9 69H164.2L163.8 69.3H163.1L162.7 69.7H160.6L160.2 70.1H159.1L158.8 69.7H157.3L157 69.3L155.9 69L155.2 68.3V67.9L154.8 67.5V66.8L154.4 66.5V63.6L154.8 63.2V62.2L155.2 61.8V60.7L155.5 60.4V60L155.9 59.6V59.3L156.2 58.9V58.6L156.6 58.2V57.8L157 57.5V57.1L157.3 56.8V56.4L157.7 56.1L158 55L159.5 53.2L159.8 52.1L160.9 51V50.7L163.1 48.1V47.8L164.5 46.3V46L166.3 44.2V43.8L169.9 40.2V39.9L172.5 37.4H172.8L177.5 32.7H177.9L179.3 31.3H179.7L181.1 29.8H181.5L182.6 28.7H182.9L185.5 26.6H185.8L186.5 25.9H186.9L187.6 25.2H188L189.8 23.7L190.9 23.4ZM173.9 23.7L174.3 23.4L174.6 23.7L174.3 24.1L173.9 23.7ZM415.6 23.4L416 23L416.3 23.4L416 23.7L415.6 23.4ZM413.8 23.4L414.2 23L414.5 23.4L414.2 23.7L413.8 23.4ZM174.6 23.4L175 23L175.4 23.4L175 23.7L174.6 23.4ZM416 23L416.3 22.6L416.7 23L416.3 23.4L416 23ZM380.6 22.6L381 23L377.4 26.6V26.9L375.6 28.7V29.1L374.5 30.2V30.5L373.4 31.6L373 32.7L372.3 33.4V33.8L372 34.1V34.5L371.6 34.9V35.2L370.5 37V37.7L370.2 38.1V38.8L369.8 39.2V40.2L369.4 40.6V42.4L369.1 42.8V44.9L369.4 45.3V46.3L369.8 46.7V47.4L370.2 47.8V48.1L370.9 48.9V49.2L372.7 51H373L373.8 51.7H374.5L374.8 52.1H375.6L375.9 52.5H377L377.4 52.8H380.3L380.6 53.2L380.3 53.5H379.9L377.7 55.7H377.4L375.6 57.5H375.2L373.8 58.9H373.4L372 60.4H371.6L370.9 61.1H370.5L369.4 62.2H369.1L368.4 62.9H368L366.2 64.3L365.1 64.7L364.4 65.4H364L363.7 65.8L362.6 66.1L361.9 66.8H361.5L359.7 67.9H359L357.2 69H356.4L356.1 69.3H355.4L355 69.7H353.9L353.6 70.1H352.1L351.8 70.4H348.2L347.8 70.1H346.7L346 69.3H345.6L345.3 69V68.6L344.5 67.9V67.2L344.2 66.8V63.2L344.5 62.9V61.4L344.9 61.1V60.4L345.6 59.3V58.6L346 58.2V57.8L346.3 57.5V57.1L346.7 56.8V56.4L347.1 56.1V55.7L347.4 55.3L347.8 54.3L348.5 53.5L348.9 52.5L349.6 51.7V51.4L350.7 50.3V49.9L351.4 49.2V48.9L352.8 47.4V47.1L354.3 45.6V45.3L356.4 43.1V42.8L366.5 32.7H366.9L368.7 30.9H369.1L371.2 28.7H371.6L372.3 28H372.7L373.8 26.9H374.1L375.6 25.5H375.9L376.6 24.8H377L378.8 23.4H379.2L379.5 23L380.6 22.6ZM175.4 23L175.7 22.6L176.1 23L175.7 23.4L175.4 23ZM178.6 22.6L179 22.3H179.3L179.7 22.6L179.3 23H179L178.6 22.6ZM176.1 22.6L176.4 22.3L176.8 22.6L176.4 23L176.1 22.6ZM417.1 22.3L417.4 21.9L417.8 22.3L417.4 22.6L417.1 22.3ZM380.6 22.6L381.3 21.9H381.7L382.1 22.3L381.3 23H381L380.6 22.6ZM260.5 23V23.4L260.9 23.7V25.5L260.5 25.9V26.6L260.1 26.9L259.8 28L259 28.7L258.7 29.8L258 30.5V30.9L256.9 32V32.3L255.4 33.8V34.1L253.6 35.9V36.3L248.6 41.3V41.7L246.8 43.5H246.4L243.9 46V46.3L241.7 48.5H241.4L239.6 50.3L238.1 51.7V52.1L237.4 52.8V53.2L238.5 52.8L239.2 52.1H239.6L240.3 51.4H240.6L241 51.7L239.9 52.8H239.6L237.8 54.6H237.4L236 56.1H235.6L234.5 57.1H234.2L233.1 58.2H232.7L230.9 60H230.5L229.8 60.7H229.5L227.3 62.9H226.9L224.4 65.4H224.1L223 66.5H214.3L214 66.1L219.7 60.4H220.1L224.8 55.7H225.1L229.1 51.7H229.5L232.4 48.9H232.7L237 44.6H237.4L240.3 41.7H240.6L241 41.3V41L241.7 40.2H242.1L246.4 35.9H246.8L250 32.7H250.4L258 25.2V24.8L258.7 24.1V23.7L259 23.4V22.6L258.7 22.3L259 21.9H259.4L260.5 23ZM179.3 22.3L179.7 21.9L180 22.3L179.7 22.6L179.3 22.3ZM176.8 22.3L177.2 21.9H177.5L177.9 22.3L177.5 22.6H177.2L176.8 22.3ZM417.4 21.9L417.8 21.6L418.1 21.9L417.8 22.3L417.4 21.9ZM381.7 21.9L382.1 21.6L382.4 21.9L382.1 22.3L381.7 21.9ZM193.8 21.6L194.1 21.9L192.7 23.4H192.3L191.6 24.1L190.9 23.4L191.6 22.6H191.9L192.3 22.3H192.7L193.4 21.6H193.8ZM177.9 21.9L178.2 21.6H178.6L179 21.9L178.6 22.3H178.2L177.9 21.9ZM213.2 21.2L213.6 21.6V23.7L213.2 24.1L212.9 23.7V21.6L213.2 21.2ZM193.8 21.6L194.1 21.2L194.5 21.6L194.1 21.9L193.8 21.6ZM178.6 21.6L179 21.2H179.3L179.7 21.6L179.3 21.9H179L178.6 21.6ZM418.9 20.8L419.2 20.5L419.6 20.8L419.2 21.2L418.9 20.8ZM419.9 20.1L420.3 19.8L420.7 20.1L420.3 20.5L419.9 20.1ZM212.5 20.1L212.9 19.8L213.2 20.1V20.5L212.9 20.8L212.5 20.5V20.1ZM386 19.8L386.4 19.4L386.8 19.8L386.4 20.1L386 19.8ZM421 19.4L421.4 19L421.7 19.4L421.4 19.8L421 19.4ZM386.4 19.4L386.8 19H387.1L387.5 19.4L387.1 19.8H386.8L386.4 19.4ZM212.1 19.4L212.5 19L212.9 19.4L212.5 19.8L212.1 19.4ZM421.4 19L421.7 18.7L422.1 19L421.7 19.4L421.4 19ZM399.7 19L400.1 18.7L400.5 19L400.1 19.4L399.7 19ZM387.1 19L387.5 18.7L387.8 19L387.5 19.4L387.1 19ZM211.8 19L212.1 18.7L212.5 19L212.1 19.4L211.8 19ZM422.1 18.7L422.5 18.3L422.8 18.7L422.5 19L422.1 18.7ZM399.4 18.7L399.7 18.3L400.1 18.7L399.7 19L399.4 18.7ZM422.5 18.3L422.8 18L423.2 18.3L422.8 18.7L422.5 18.3ZM399 18.3L399.4 18L399.7 18.3L399.4 18.7L399 18.3ZM423.2 18L423.5 17.6L423.9 18L423.5 18.3L423.2 18ZM210.7 18L211.1 17.6H211.4L212.1 18.3V18.7L211.8 19L210.7 18ZM210.3 18L211.4 19V19.4L212.1 20.1V20.8L212.5 21.2V24.8L212.1 25.2V26.2L211.8 26.6V27.3L211.4 27.7V28.4L211.1 28.7V29.1L210.7 29.5V29.8L210.3 30.2V30.5L210 30.9L209.6 32L208.9 32.7L208.5 33.8L207.5 34.9V35.2L206.7 35.9V36.3L204.9 38.1V38.4L203.5 39.9V40.2L194.1 49.6H193.8L191.6 51.7H191.2L190.9 51.4H189.1L188.7 51H187.6L187.3 50.7H186.9L183.6 47.4V47.1L182.6 45.3V40.2L182.9 39.9V38.8L183.3 38.4V37.7L183.6 37.4V37L184 36.6V36.3L184.4 35.9V35.6L184.7 35.2V34.9L185.1 34.5L185.5 33.4L186.2 32.7V32.3L187.3 31.3V30.9L188.3 29.8V29.5L194.5 23.4H194.8L196.3 21.9H196.6L197.4 21.2L198.4 20.8L199.2 20.1H199.5L199.9 19.8H200.2L200.6 19.4H201L201.3 19H201.7L203.5 18H204.6L204.9 17.6H209.6L210 18H210.3ZM423.5 17.6L423.9 17.2L424.3 17.6L423.9 18L423.5 17.6ZM424.3 17.2L424.6 16.9L425 17.2L424.6 17.6L424.3 17.2ZM398.7 17.2L399.4 18L399 18.3L399.4 18.7V19L400.5 20.8V21.6L400.8 21.9V24.8L400.5 25.2V26.6L400.1 26.9V28L399.7 28.4V29.1L399.4 29.5V30.2L399 30.5V30.9L398.3 31.6V32L397.9 32.3V32.7L397.6 33.1L397.2 34.1L396.5 34.9V35.2L395.8 35.9V36.3L395 37V37.4L394 38.4V38.8L392.9 39.9V40.2L391.4 41.7V42L388.9 44.6V44.9L383.1 50.7H382.8L382.1 51.4H379.9L379.5 51.7H376.6L376.3 51.4H375.2L374.8 51L373.8 50.7L372 48.9V48.5L371.2 47.4V46.7L370.9 46.3V45.6L370.5 45.3V43.1L370.9 42.8V41L371.2 40.6V39.5L372 38.4V37.7L372.7 36.6V35.9L373 35.6V35.2L373.8 34.5V34.1L374.1 33.8L374.5 32.7L375.2 32V31.6L375.9 30.9V30.5L377.7 28.7V28.4L381.7 24.4L382.1 24.8L382.4 24.4L382.1 24.1L383.9 22.3H384.2L385.3 21.2H385.7L386.4 20.5H386.8L387.1 20.1H387.5L387.8 19.8H388.2L388.6 19.4H388.9L390.7 18.3H391.4L391.8 18H392.9L393.2 17.6H394.3L394.7 17.2H396.1L396.5 17.6H397.2L396.9 17.2L397.2 16.9H397.9L398.3 17.2H398.7ZM209.3 17.2L209.6 16.9H210.3L211.1 17.6L210.7 18H210.3L209.3 17.2ZM424.6 16.9L425 16.5L425.4 16.9L425 17.2L424.6 16.9ZM395.8 16.9L396.1 16.5H396.9L397.2 16.9L396.9 17.2H396.1L395.8 16.9ZM207.8 16.9L208.2 16.5H209.3L209.6 16.9L209.3 17.2H208.2L207.8 16.9ZM425.4 16.5L425.7 16.2L426.1 16.5L425.7 16.9L425.4 16.5ZM395.8 16.5L395.4 16.9H394L393.6 17.2H391.4L391.1 16.9L390.7 17.2H390L389.6 17.6H388.9L388.6 18H387.8L387.5 18.3H387.1L386.8 18.7H386.4L386 19H385.7L385.3 19.4H384.9L384.6 19.8H384.2L383.9 20.1H383.5L383.1 20.5H382.8L381 21.6L379.9 21.2H380.3L380.6 21.6L379.9 22.3L378.8 22.6L378.1 23.4H377.7L377 24.1H376.6L375.9 24.8H375.6L374.8 25.5H374.5L373.8 26.2H373.4L372.3 27.3H372L370.2 29.1H369.8L368.4 30.5H368L365.5 33.1H365.1L356.1 42V42.4L352.5 46.3V46.7L351.4 47.8V48.1L349.2 50.7L348.9 51.7L348.2 52.5V52.8L347.4 53.5L347.1 54.6L346.3 55.3V55.7L346 56.1V56.4L344.9 58.2V58.9L344.5 59.3V60.4L344.2 60.7V61.8L343.8 62.2V63.6L343.5 64V66.1L343.8 66.5V67.2L344.2 67.5V68.3L344.9 69V69.3H345.3L346 70.1L345.6 70.4H345.3L344.9 70.1L343.8 69.7L342.7 68.6H342.4L342 68.3V67.9L341.3 67.2V66.8L340.6 65.8V65L340.2 64.7V63.6L339.9 63.2V60.4L340.2 60V58.2L340.6 57.8V56.8L340.9 56.4V55.3L341.3 55V54.3L342 53.2V52.5L342.4 52.1V51.7L342.7 51.4V51L343.1 50.7V50.3L343.5 49.9V49.6L343.8 49.2V48.9L344.2 48.5L344.5 47.4L345.3 46.7V46.3L346 45.6V45.3L346.7 44.6V44.2L347.4 43.5V43.1L348.2 42.4V42L350.3 39.5V39.2L351.8 37.7V37.4L353.6 35.6V35.2L353.9 34.9H353.6L353.2 34.5L353.9 33.8H354.3L355 33.1H355.4L356.1 32.3H356.4L357.9 30.9H358.3L359.7 29.5H360.1L361.9 27.7H362.2L363.3 26.6H363.7L364.7 25.5H365.1L365.8 24.8H366.2L368 23.4H368.4L368.7 23L369.8 22.6L370.5 21.9H371.2L372 21.2H372.3L372.7 20.8H373.4L373.8 20.5H374.1L375.9 19.4H376.6L377.7 18.7H378.5L378.8 18.3H379.5L379.9 18H381L381.3 17.6H382.1L382.4 17.2H383.5L383.9 16.9H385.3L385.7 16.5H387.5L387.8 16.2H395.4L395.8 16.5Z" fill="#D1EFE6"/></svg>
